<?xml version="1.0" encoding="UTF-8"?>
<svg width="532px" height="146px" viewBox="0 0 532 146" version="1.1" xmlns="http://www.w3.org/2000/svg" xmlns:xlink="http://www.w3.org/1999/xlink">
    <title>fondoportada</title>
    <g id="fondos-europeos-Cap2---Movilidad" stroke="none" stroke-width="1" fill="none" fill-rule="evenodd">
        <g transform="translate(-434.000000, -334.000000)" fill-rule="nonzero" id="fondoportada">
            <g transform="translate(434.000000, 334.000000)">
                <rect id="Rectangle" fill="#D0E4EA" x="1" y="133" width="531" height="13"></rect>
                <polygon id="Path" fill="#D0E4EA" points="399 126 399 40.4146173 386.071995 40.4146173 386.071995 30.9052524 373.268852 30.9052524 357 18 357 126 399 126"></polygon>
                <polygon id="Path" fill="#D0E4EA" points="282 126 282 24.8882049 286.585237 24.8882049 290.496742 33.3634498 296.296413 33.3634498 300.814062 23.5730994 307.517047 23.5730994 312.396237 13 323 13 323 126"></polygon>
                <polygon id="Path" fill="#D0E4EA" points="499 34.5042024 499 127 532 127 532 34.5042024 532 23"></polygon>
                <polygon id="Path" fill="#D0E4EA" points="457.848174 92.0598405 457.848174 41.1501445 457.772793 41.1501445 457.772793 40.2137293 450.668441 40.2137293 442.047737 32 433.427032 40.2137293 426.162087 40.2137293 426.162087 41.1501445 426.129313 41.1501445 426.129313 81.4844331 420.152393 79.886444 420.152393 78.2797642 417.119688 75.0653184 417.119688 71.8552178 416.847662 71.8552178 415.405598 71.0078817 411.08159 64.4008321 406.757582 71.0046227 405.314425 71.8552178 405.043491 71.8552178 405.043491 74.8643476 402.010786 78.2797642 402.010786 79.886444 396 81.4931238 396 82.0036981 396 83.1117531 396 126 426.129313 126 457.848174 126 475 126 475 92.0598405"></polygon>
                <polygon id="Path" fill="#D0E4EA" points="281 65.9347557 273.833511 64.2491593 271.145944 61.451507 259.499467 57 247.854056 61.4569797 245.166489 64.2480647 238 65.9347557 240.890281 65.9347557 240.890281 126 278.430861 126 278.430861 65.9347557"></polygon>
                <rect id="Rectangle" fill="#D0E4EA" x="458" y="15" width="41" height="111"></rect>
                <polygon id="Path" fill="#D0E4EA" points="494.997884 12 462.002116 12 458 15 499 15"></polygon>
                <polygon id="Path" fill="#D0E4EA" points="491.879515 9 466.120485 9 465 12 493 12"></polygon>
                <rect id="Rectangle" fill="#D0E4EA" x="466" y="6" width="26" height="3"></rect>
                <polygon id="Path" fill="#D0E4EA" points="88 15 88 126 118 126 118 15 118 15"></polygon>
                <rect id="Rectangle" fill="#D0E4EA" x="114" y="71" width="22" height="55"></rect>
                <polygon id="Path" fill="#D0E4EA" points="162 126 140 126 140 87.6864619 162 83"></polygon>
                <polygon id="Path" fill="#D0E4EA" points="147 126 125 126 125 58 147 64.2551448"></polygon>
                <path d="M55.3488544,78.0495567 L55.3488544,52.8984118 L48.6452744,52.8984118 L48.6452744,38.1180027 L44.8076547,38.1180027 L44.8076547,33.65351 L46.7509739,33.65351 L45.0462124,32.8684961 L40.827336,27.8075682 L40.827336,23.931836 L45.4841128,23.931836 L43.3665048,22.9527613 L45.4841128,22 L40.5005447,22 C40.3218987,22 40.1737533,22.0504339 40.1737533,22.1096388 L40.1737533,27.8053754 L35.951609,32.8641105 L34.2468475,33.6513172 L36.1901667,33.6513172 L36.1901667,38.1158099 L32.3547256,38.1158099 L32.3547256,52.896219 L25.6511456,52.896219 L25.6511456,78.047364 L11,78.047364 L11,127 L70,127 L70,78.0495567 L55.3488544,78.0495567 Z" id="Path" fill="#D0E4EA"></path>
                <polygon id="Path" fill="#D0E4EA" points="29.9464545 56.5841493 28.0545123 54.1990366 28.0545123 51.7986696 27.1442383 51 3.77830662 51 1.95552746 51.7986696 1.95552746 54.1990366 0.0501989365 56.5841493 0 56.5841493 0 127 30 127 30 56.5841493"></polygon>
                <polygon id="Path" fill="#D0E4EA" points="180.94757 56.5841493 179.055628 54.1990366 179.055628 51.7986696 178.145354 51 154.778307 51 152.955527 51.7986696 152.955527 54.1990366 151.051314 56.5841493 151 56.5841493 151 127 181 127 181 56.5841493"></polygon>
                <polygon id="Path" fill="#D0E4EA" points="238.936151 18.5231535 236.665268 14.8830906 236.665268 11.2191442 235.573456 10 207.534319 10 205.346438 11.2191442 205.346438 14.8830906 203.060656 18.5231535 203 18.5231535 203 126 239 126 239 18.5231535"></polygon>
                <polygon id="Path" fill="#D0E4EA" points="86.0863542 52.7608567 86.0863542 50.9351948 85.8003388 50.9351948 85.8003388 47.7244728 86.1638622 47.7244728 86.1638622 47.400565 85.9586298 47.400565 84.1672125 45.9348006 82.3757952 47.400565 82.1705628 47.400565 82.1705628 47.7244728 82.5340862 47.7244728 82.5340862 50.9351948 82.2480708 50.9351948 82.2480708 52.7608567 79.3333333 52.7608567 79.3333333 55.327035 76.5354037 55.327035 76.5354037 47.5957821 76.9873518 47.5957821 76.9873518 46.7647461 76.7329945 46.7647461 74.4994542 43 72.2670055 46.7647461 72.0126482 46.7647461 72.0126482 47.5957821 72.4645963 47.5957821 72.4645963 55.327035 69.6666667 55.327035 69.6666667 52.7608567 66.7519292 52.7608567 66.7519292 50.9351948 66.4659138 50.9351948 66.4659138 47.7244728 66.8294372 47.7244728 66.8294372 47.400565 66.6242048 47.400565 64.8327875 45.9348006 63.0413702 47.400565 62.8361378 47.400565 62.8361378 47.7244728 63.1996612 47.7244728 63.1996612 50.9351948 62.9136458 50.9351948 62.9136458 52.7608567 60 52.7608567 60 55.327035 60 126 89 126 89 55.327035 89 52.7608567"></polygon>
                <polygon id="Path" fill="#D0E4EA" points="354.481753 46.5833796 354.481753 44.6044266 354.137577 44.6044266 354.137577 41.1222515 354.575719 41.1222515 354.575719 40.7714272 354.327693 40.7714272 352.166485 39.1813135 350.004183 40.7714272 349.75725 40.7714272 349.75725 41.1222515 350.195392 41.1222515 350.195392 44.6044266 349.850123 44.6044266 349.850123 46.5833796 346.332969 46.5833796 346.332969 49.3660785 342.955671 49.3660785 342.955671 40.9832251 343.501982 40.9832251 343.501982 40.0817262 343.193863 40.0817262 340.499454 36 337.805045 40.0817262 337.496925 40.0817262 337.496925 40.9832251 338.043237 40.9832251 338.043237 49.3660785 334.665938 49.3660785 334.665938 46.5833796 331.148784 46.5833796 331.148784 44.6044266 330.804608 44.6044266 330.804608 41.1222515 331.24275 41.1222515 331.24275 40.7714272 330.994724 40.7714272 328.832423 39.1813135 326.671214 40.7714272 326.424281 40.7714272 326.424281 41.1222515 326.862423 41.1222515 326.862423 44.6044266 326.517154 44.6044266 326.517154 46.5833796 323 46.5833796 323 49.3660785 323 126 358 126 358 49.3660785 358 46.5833796"></polygon>
                <polygon id="Path" fill="#D0E4EA" points="399 126 399 40.4146173 386.071995 40.4146173 386.071995 30.9052524 373.268852 30.9052524 357 18 357 126 399 126"></polygon>
                <polygon id="Path" fill="#D0E4EA" points="282 126 282 24.8882049 286.585237 24.8882049 290.496742 33.3634498 296.296413 33.3634498 300.814062 23.5730994 307.517047 23.5730994 312.396237 13 323 13 323 126"></polygon>
                <polygon id="Path" fill="#D0E4EA" points="499 34.5042024 499 127 532 127 532 34.5042024 532 23"></polygon>
                <polygon id="Path" fill="#D0E4EA" points="457.848174 92.0598405 457.848174 41.1501445 457.772793 41.1501445 457.772793 40.2137293 450.668441 40.2137293 442.047737 32 433.427032 40.2137293 426.162087 40.2137293 426.162087 41.1501445 426.129313 41.1501445 426.129313 81.4844331 420.152393 79.886444 420.152393 78.2797642 417.119688 75.0653184 417.119688 71.8552178 416.847662 71.8552178 415.405598 71.0078817 411.08159 64.4008321 406.757582 71.0046227 405.314425 71.8552178 405.043491 71.8552178 405.043491 74.8643476 402.010786 78.2797642 402.010786 79.886444 396 81.4931238 396 82.0036981 396 83.1117531 396 126 426.129313 126 457.848174 126 475 126 475 92.0598405"></polygon>
                <polygon id="Path" fill="#D0E4EA" points="281 65.9347557 273.833511 64.2491593 271.145944 61.451507 259.499467 57 247.854056 61.4569797 245.166489 64.2480647 238 65.9347557 240.890281 65.9347557 240.890281 126 278.430861 126 278.430861 65.9347557"></polygon>
                <rect id="Rectangle" fill="#D0E4EA" x="458" y="15" width="41" height="111"></rect>
                <polygon id="Path" fill="#D0E4EA" points="494.997884 12 462.002116 12 458 15 499 15"></polygon>
                <polygon id="Path" fill="#D0E4EA" points="491.879515 9 466.120485 9 465 12 493 12"></polygon>
                <rect id="Rectangle" fill="#D0E4EA" x="466" y="6" width="26" height="3"></rect>
                <polygon id="Path" fill="#D0E4EA" points="88 15 88 126 118 126 118 15 118 15"></polygon>
                <rect id="Rectangle" fill="#D0E4EA" x="114" y="71" width="22" height="55"></rect>
                <polygon id="Path" fill="#D0E4EA" points="162 126 140 126 140 87.6864619 162 83"></polygon>
                <polygon id="Path" fill="#D0E4EA" points="147 126 125 126 125 58 147 64.2551448"></polygon>
                <path d="M55.3488544,78.0495567 L55.3488544,52.8984118 L48.6452744,52.8984118 L48.6452744,38.1180027 L44.8076547,38.1180027 L44.8076547,33.65351 L46.7509739,33.65351 L45.0462124,32.8684961 L40.827336,27.8075682 L40.827336,23.931836 L45.4841128,23.931836 L43.3665048,22.9527613 L45.4841128,22 L40.5005447,22 C40.3218987,22 40.1737533,22.0504339 40.1737533,22.1096388 L40.1737533,27.8053754 L35.951609,32.8641105 L34.2468475,33.6513172 L36.1901667,33.6513172 L36.1901667,38.1158099 L32.3547256,38.1158099 L32.3547256,52.896219 L25.6511456,52.896219 L25.6511456,78.047364 L11,78.047364 L11,127 L70,127 L70,78.0495567 L55.3488544,78.0495567 Z" id="Path" fill="#D0E4EA"></path>
                <polygon id="Path" fill="#D0E4EA" points="29.9464545 56.5841493 28.0545123 54.1990366 28.0545123 51.7986696 27.1442383 51 3.77830662 51 1.95552746 51.7986696 1.95552746 54.1990366 0.0501989365 56.5841493 0 56.5841493 0 127 30 127 30 56.5841493"></polygon>
                <polygon id="Path" fill="#D0E4EA" points="180.94757 56.5841493 179.055628 54.1990366 179.055628 51.7986696 178.145354 51 154.778307 51 152.955527 51.7986696 152.955527 54.1990366 151.051314 56.5841493 151 56.5841493 151 127 181 127 181 56.5841493"></polygon>
                <polygon id="Path" fill="#D0E4EA" points="238.936151 18.5231535 236.665268 14.8830906 236.665268 11.2191442 235.573456 10 207.534319 10 205.346438 11.2191442 205.346438 14.8830906 203.060656 18.5231535 203 18.5231535 203 126 239 126 239 18.5231535"></polygon>
                <polygon id="Path" fill="#D0E4EA" points="86.0863542 52.7608567 86.0863542 50.9351948 85.8003388 50.9351948 85.8003388 47.7244728 86.1638622 47.7244728 86.1638622 47.400565 85.9586298 47.400565 84.1672125 45.9348006 82.3757952 47.400565 82.1705628 47.400565 82.1705628 47.7244728 82.5340862 47.7244728 82.5340862 50.9351948 82.2480708 50.9351948 82.2480708 52.7608567 79.3333333 52.7608567 79.3333333 55.327035 76.5354037 55.327035 76.5354037 47.5957821 76.9873518 47.5957821 76.9873518 46.7647461 76.7329945 46.7647461 74.4994542 43 72.2670055 46.7647461 72.0126482 46.7647461 72.0126482 47.5957821 72.4645963 47.5957821 72.4645963 55.327035 69.6666667 55.327035 69.6666667 52.7608567 66.7519292 52.7608567 66.7519292 50.9351948 66.4659138 50.9351948 66.4659138 47.7244728 66.8294372 47.7244728 66.8294372 47.400565 66.6242048 47.400565 64.8327875 45.9348006 63.0413702 47.400565 62.8361378 47.400565 62.8361378 47.7244728 63.1996612 47.7244728 63.1996612 50.9351948 62.9136458 50.9351948 62.9136458 52.7608567 60 52.7608567 60 55.327035 60 126 89 126 89 55.327035 89 52.7608567"></polygon>
                <polygon id="Path" fill="#D0E4EA" points="354.481753 46.5833796 354.481753 44.6044266 354.137577 44.6044266 354.137577 41.1222515 354.575719 41.1222515 354.575719 40.7714272 354.327693 40.7714272 352.166485 39.1813135 350.004183 40.7714272 349.75725 40.7714272 349.75725 41.1222515 350.195392 41.1222515 350.195392 44.6044266 349.850123 44.6044266 349.850123 46.5833796 346.332969 46.5833796 346.332969 49.3660785 342.955671 49.3660785 342.955671 40.9832251 343.501982 40.9832251 343.501982 40.0817262 343.193863 40.0817262 340.499454 36 337.805045 40.0817262 337.496925 40.0817262 337.496925 40.9832251 338.043237 40.9832251 338.043237 49.3660785 334.665938 49.3660785 334.665938 46.5833796 331.148784 46.5833796 331.148784 44.6044266 330.804608 44.6044266 330.804608 41.1222515 331.24275 41.1222515 331.24275 40.7714272 330.994724 40.7714272 328.832423 39.1813135 326.671214 40.7714272 326.424281 40.7714272 326.424281 41.1222515 326.862423 41.1222515 326.862423 44.6044266 326.517154 44.6044266 326.517154 46.5833796 323 46.5833796 323 49.3660785 323 126 358 126 358 49.3660785 358 46.5833796"></polygon>
                <polygon id="Rectangle" fill="#DADADA" transform="translate(191.297497, 74.312387) rotate(-89.930000) translate(-191.297497, -74.312387) " points="139.607027 55.5637915 242.987967 55.5637915 242.987967 93.0609818 139.607027 93.0609818"></polygon>
                <polygon id="Path" fill="#DADADA" points="173.015051 4 173 22.9504591 210 23"></polygon>
                <rect id="Rectangle" fill="#DADADA" x="178" y="19" width="2" height="18"></rect>
                <rect id="Rectangle" fill="#DADADA" x="183" y="23" width="2" height="18"></rect>
                <rect id="Rectangle" fill="#DADADA" x="187" y="26" width="2" height="18"></rect>
                <rect id="Rectangle" fill="#DADADA" x="178" y="43" width="2" height="18"></rect>
                <rect id="Rectangle" fill="#DADADA" x="183" y="46" width="2" height="18"></rect>
                <rect id="Rectangle" fill="#DADADA" x="187" y="50" width="2" height="18"></rect>
                <rect id="Rectangle" fill="#DADADA" x="193" y="28" width="2" height="18"></rect>
                <rect id="Rectangle" fill="#DADADA" x="198" y="31" width="2" height="18"></rect>
                <rect id="Rectangle" fill="#DADADA" x="202" y="34" width="2" height="18"></rect>
                <rect id="Rectangle" fill="#DADADA" x="193" y="52" width="2" height="18"></rect>
                <rect id="Rectangle" fill="#DADADA" x="198" y="55" width="2" height="18"></rect>
                <rect id="Rectangle" fill="#DADADA" x="202" y="58" width="2" height="18"></rect>
                <rect id="Rectangle" fill="#DADADA" x="178" y="67" width="2" height="18"></rect>
                <rect id="Rectangle" fill="#DADADA" x="183" y="70" width="2" height="18"></rect>
                <rect id="Rectangle" fill="#DADADA" x="187" y="73" width="2" height="18"></rect>
                <rect id="Rectangle" fill="#DADADA" x="178" y="91" width="2" height="18"></rect>
                <rect id="Rectangle" fill="#DADADA" x="183" y="94" width="2" height="18"></rect>
                <rect id="Rectangle" fill="#DADADA" x="187" y="97" width="2" height="18"></rect>
                <rect id="Rectangle" fill="#DADADA" x="193" y="75" width="2" height="18"></rect>
                <rect id="Rectangle" fill="#DADADA" x="198" y="78" width="2" height="18"></rect>
                <rect id="Rectangle" fill="#DADADA" x="202" y="82" width="2" height="18"></rect>
                <rect id="Rectangle" fill="#DADADA" x="193" y="99" width="2" height="18"></rect>
                <rect id="Rectangle" fill="#DADADA" x="198" y="102" width="2" height="18"></rect>
                <rect id="Rectangle" fill="#DADADA" x="202" y="105" width="2" height="18"></rect>
                <path d="M243.666848,48.6736392 L241.666372,45.1696161 L233.536249,39.9389887 L233.536249,38.9659493 L233.130938,33.2704253 C233.560565,33.0562048 234.040339,32.9613306 234.519644,32.9958119 C235.023838,33.0293277 235.457401,33.2563703 235.942035,33.3785408 C236.485348,33.5158475 237.084078,33.4369231 237.61761,33.2833992 C237.688241,33.2628572 238.455397,33.0498697 238.455397,32.9460788 L238.455397,31 C238.171789,31.3243465 237.713233,31.425975 237.327481,31.460572 C236.835715,31.5171242 236.338055,31.4959606 235.852932,31.397865 C235.391117,31.2897495 234.994499,31.062707 234.510951,31.0454085 C234.141825,31.0343978 233.773728,31.0897007 233.424327,31.2086629 C233.390641,31.2194744 232.997283,31.3394826 232.99837,31.3892158 L232.99837,31.4573285 L232.434412,38.9627058 L232.434412,39.9584495 L224.333628,45.1761031 L222.333152,48.6714769 L217,50.7829724 L219.151516,50.7829724 L219.151516,126 L247.087541,126 L247.087541,50.7829724 L249,50.7829724 L243.666848,48.6736392 Z" id="Path" fill="#DADADA"></path>
                <polygon id="Rectangle" fill="#DADADA" transform="translate(233.000000, 51.500000) rotate(-90.000000) translate(-233.000000, -51.500000) " points="232 40 234 40 234 63 232 63"></polygon>
                <rect id="Rectangle" fill="#DADADA" transform="translate(239.000000, 55.500000) rotate(-90.000000) translate(-239.000000, -55.500000) " x="238" y="50" width="2" height="11"></rect>
                <polygon id="Rectangle" fill="#DADADA" transform="translate(233.000000, 57.500000) rotate(-90.000000) translate(-233.000000, -57.500000) " points="232 46 234 46 234 69 232 69"></polygon>
                <polygon id="Rectangle" fill="#DADADA" transform="translate(228.000000, 60.500000) rotate(-90.000000) translate(-228.000000, -60.500000) " points="227 55 229 55 229 66 227 66"></polygon>
                <polygon id="Rectangle" fill="#DADADA" transform="translate(233.000000, 64.500000) rotate(-90.000000) translate(-233.000000, -64.500000) " points="232 53 234 53 234 76 232 76"></polygon>
                <polygon id="Rectangle" fill="#DADADA" transform="translate(239.000000, 66.500000) rotate(-90.000000) translate(-239.000000, -66.500000) " points="238 61 240 61 240 72 238 72"></polygon>
                <polygon id="Rectangle" fill="#DADADA" transform="translate(233.000000, 69.500000) rotate(-90.000000) translate(-233.000000, -69.500000) " points="232 58 234 58 234 81 232 81"></polygon>
                <polygon id="Rectangle" fill="#DADADA" transform="translate(239.000000, 71.500000) rotate(-90.000000) translate(-239.000000, -71.500000) " points="238 66 240 66 240 77 238 77"></polygon>
                <polygon id="Rectangle" fill="#DADADA" transform="translate(233.000000, 75.500000) rotate(-90.000000) translate(-233.000000, -75.500000) " points="232 64 234 64 234 87 232 87"></polygon>
                <polygon id="Rectangle" fill="#DADADA" transform="translate(228.000000, 78.500000) rotate(-90.000000) translate(-228.000000, -78.500000) " points="227 73 229 73 229 84 227 84"></polygon>
                <polygon id="Rectangle" fill="#DADADA" transform="translate(233.000000, 80.500000) rotate(-90.000000) translate(-233.000000, -80.500000) " points="232 69 234 69 234 92 232 92"></polygon>
                <polygon id="Rectangle" fill="#DADADA" transform="translate(239.000000, 83.500000) rotate(-90.000000) translate(-239.000000, -83.500000) " points="238 78 240 78 240 89 238 89"></polygon>
                <polygon id="Rectangle" fill="#DADADA" transform="translate(233.000000, 86.500000) rotate(-90.000000) translate(-233.000000, -86.500000) " points="232 75 234 75 234 98 232 98"></polygon>
                <rect id="Rectangle" fill="#DADADA" transform="translate(239.000000, 89.500000) rotate(-90.000000) translate(-239.000000, -89.500000) " x="238" y="84" width="2" height="11"></rect>
                <polygon id="Rectangle" fill="#DADADA" transform="translate(233.000000, 92.500000) rotate(-90.000000) translate(-233.000000, -92.500000) " points="232 81 234 81 234 104 232 104"></polygon>
                <polygon id="Rectangle" fill="#DADADA" transform="translate(228.000000, 95.500000) rotate(-90.000000) translate(-228.000000, -95.500000) " points="227 90 229 90 229 101 227 101"></polygon>
                <polygon id="Rectangle" fill="#DADADA" transform="translate(233.000000, 98.500000) rotate(-90.000000) translate(-233.000000, -98.500000) " points="232 87 234 87 234 110 232 110"></polygon>
                <rect id="Rectangle" fill="#DADADA" transform="translate(239.000000, 100.500000) rotate(-90.000000) translate(-239.000000, -100.500000) " x="238" y="95" width="2" height="11"></rect>
                <polygon id="Rectangle" fill="#DADADA" transform="translate(233.000000, 103.500000) rotate(-90.000000) translate(-233.000000, -103.500000) " points="232 92 234 92 234 115 232 115"></polygon>
                <polygon id="Rectangle" fill="#DADADA" transform="translate(239.000000, 106.500000) rotate(-90.000000) translate(-239.000000, -106.500000) " points="238 101 240 101 240 112 238 112"></polygon>
                <polygon id="Rectangle" fill="#DADADA" transform="translate(233.000000, 109.500000) rotate(-90.000000) translate(-233.000000, -109.500000) " points="232 98 234 98 234 121 232 121"></polygon>
                <polygon id="Rectangle" fill="#DADADA" transform="translate(228.000000, 112.500000) rotate(-90.000000) translate(-228.000000, -112.500000) " points="227 107 229 107 229 118 227 118"></polygon>
                <polygon id="Rectangle" fill="#DADADA" transform="translate(233.000000, 114.500000) rotate(-90.000000) translate(-233.000000, -114.500000) " points="232 103 234 103 234 126 232 126"></polygon>
                <rect id="Rectangle" fill="#DADADA" transform="translate(239.000000, 117.500000) rotate(-90.000000) translate(-239.000000, -117.500000) " x="238" y="112" width="2" height="11"></rect>
                <rect id="Rectangle" fill="#DADADA" x="294" y="74" width="25" height="53"></rect>
                <polygon id="Path" fill="#DADADA" points="290 77 292.909189 75.1207013 298.727568 73.9939312 305.999459 71 313.272432 73.9898854 319.090811 75.1217127 322 77"></polygon>
                <rect id="Rectangle" fill="#DADADA" x="304" y="74" width="3" height="52"></rect>
                <rect id="Rectangle" fill="#DADADA" x="311" y="79" width="3" height="48"></rect>
                <rect id="Rectangle" fill="#DADADA" x="299" y="79" width="3" height="48"></rect>
                <polygon id="Path" fill="#DADADA" points="257 59.5180449 257 128 285 128 285 59.5180449 285 51"></polygon>
                <rect id="Rectangle" fill="#DADADA" x="269" y="68" width="2" height="53"></rect>
                <rect id="Rectangle" fill="#DADADA" x="264" y="71" width="2" height="31"></rect>
                <rect id="Rectangle" fill="#DADADA" x="260" y="71" width="2" height="31"></rect>
                <rect id="Rectangle" fill="#DADADA" x="279" y="86" width="2" height="31"></rect>
                <rect id="Rectangle" fill="#DADADA" x="274" y="86" width="2" height="31"></rect>
                <polygon id="Path" fill="#DADADA" points="162.949088 60.4366088 161.044773 58.1148156 161.044773 55.7765011 159.221701 55 135.855389 55 134.945478 55.7765011 134.945478 58.1148156 133.053078 60.4366088 133 60.4366088 133 129 163 129 163 60.4366088"></polygon>
                <polygon id="Rectangle" fill="#DADADA" transform="translate(145.000000, 66.500000) rotate(-90.000000) translate(-145.000000, -66.500000) " points="144 56 146 56 146 77 144 77"></polygon>
                <polygon id="Rectangle" fill="#DADADA" transform="translate(145.000000, 68.500000) rotate(-90.000000) translate(-145.000000, -68.500000) " points="144 58 146 58 146 79 144 79"></polygon>
                <polygon id="Rectangle" fill="#DADADA" transform="translate(145.000000, 70.500000) rotate(-90.000000) translate(-145.000000, -70.500000) " points="144 60 146 60 146 81 144 81"></polygon>
                <rect id="Rectangle" fill="#DADADA" transform="translate(150.000000, 73.500000) rotate(-90.000000) translate(-150.000000, -73.500000) " x="149" y="63" width="2" height="21"></rect>
                <rect id="Rectangle" fill="#DADADA" transform="translate(150.000000, 75.500000) rotate(-90.000000) translate(-150.000000, -75.500000) " x="149" y="65" width="2" height="21"></rect>
                <rect id="Rectangle" fill="#DADADA" transform="translate(150.000000, 77.500000) rotate(-90.000000) translate(-150.000000, -77.500000) " x="149" y="67" width="2" height="21"></rect>
                <polygon id="Rectangle" fill="#DADADA" transform="translate(145.000000, 80.500000) rotate(-90.000000) translate(-145.000000, -80.500000) " points="144 70 146 70 146 91 144 91"></polygon>
                <polygon id="Rectangle" fill="#DADADA" transform="translate(145.000000, 82.500000) rotate(-90.000000) translate(-145.000000, -82.500000) " points="144 72 146 72 146 93 144 93"></polygon>
                <polygon id="Rectangle" fill="#DADADA" transform="translate(145.000000, 84.500000) rotate(-90.000000) translate(-145.000000, -84.500000) " points="144 74 146 74 146 95 144 95"></polygon>
                <rect id="Rectangle" fill="#DADADA" transform="translate(150.000000, 88.500000) rotate(-90.000000) translate(-150.000000, -88.500000) " x="149" y="78" width="2" height="21"></rect>
                <rect id="Rectangle" fill="#DADADA" transform="translate(150.000000, 90.500000) rotate(-90.000000) translate(-150.000000, -90.500000) " x="149" y="80" width="2" height="21"></rect>
                <rect id="Rectangle" fill="#DADADA" transform="translate(150.000000, 93.500000) rotate(-90.000000) translate(-150.000000, -93.500000) " x="149" y="83" width="2" height="21"></rect>
                <polygon id="Rectangle" fill="#DADADA" transform="translate(145.000000, 96.500000) rotate(-90.000000) translate(-145.000000, -96.500000) " points="144 86 146 86 146 107 144 107"></polygon>
                <polygon id="Rectangle" fill="#DADADA" transform="translate(145.000000, 98.500000) rotate(-90.000000) translate(-145.000000, -98.500000) " points="144 88 146 88 146 109 144 109"></polygon>
                <polygon id="Rectangle" fill="#DADADA" transform="translate(145.000000, 100.500000) rotate(-90.000000) translate(-145.000000, -100.500000) " points="144 90 146 90 146 111 144 111"></polygon>
                <rect id="Rectangle" fill="#DADADA" transform="translate(150.000000, 103.500000) rotate(-90.000000) translate(-150.000000, -103.500000) " x="149" y="93" width="2" height="21"></rect>
                <rect id="Rectangle" fill="#DADADA" transform="translate(150.000000, 105.500000) rotate(-90.000000) translate(-150.000000, -105.500000) " x="149" y="95" width="2" height="21"></rect>
                <rect id="Rectangle" fill="#DADADA" transform="translate(150.000000, 107.500000) rotate(-90.000000) translate(-150.000000, -107.500000) " x="149" y="97" width="2" height="21"></rect>
                <polygon id="Rectangle" fill="#DADADA" transform="translate(145.000000, 110.500000) rotate(-90.000000) translate(-145.000000, -110.500000) " points="144 100 146 100 146 121 144 121"></polygon>
                <polygon id="Rectangle" fill="#DADADA" transform="translate(145.000000, 113.500000) rotate(-90.000000) translate(-145.000000, -113.500000) " points="144 103 146 103 146 124 144 124"></polygon>
                <polygon id="Rectangle" fill="#DADADA" transform="translate(145.000000, 115.500000) rotate(-90.000000) translate(-145.000000, -115.500000) " points="144 105 146 105 146 126 144 126"></polygon>
                <rect id="Rectangle" fill="#DADADA" transform="translate(150.000000, 119.500000) rotate(-90.000000) translate(-150.000000, -119.500000) " x="149" y="109" width="2" height="21"></rect>
                <polygon id="Rectangle" fill="#DADADA" transform="translate(150.000000, 121.500000) rotate(-90.000000) translate(-150.000000, -121.500000) " points="149 111 151 111 151 132 149 132"></polygon>
                <polygon id="Rectangle" fill="#DADADA" transform="translate(150.000000, 123.500000) rotate(-90.000000) translate(-150.000000, -123.500000) " points="149 113 151 113 151 134 149 134"></polygon>
                <polygon id="Path" fill="#DADADA" points="393.985861 51.996485 393.985861 50.1277801 393.689927 50.1277801 393.689927 46.8379902 394.064777 46.8379902 394.064777 46.506621 393.853239 46.506621 391.999817 45.0051383 390.147492 46.506621 389.934858 46.506621 389.934858 46.8379902 390.310803 46.8379902 390.310803 50.1277801 390.01487 50.1277801 390.01487 51.996485 387.000731 51.996485 387.000731 54.6246229 384.106061 54.6246229 384.106061 46.706529 384.574075 46.706529 384.574075 45.8558336 384.309927 45.8558336 382.000548 42 379.691169 45.8558336 379.427021 45.8558336 379.427021 46.706529 379.895035 46.706529 379.895035 54.6246229 377.000365 54.6246229 377.000365 51.996485 373.98513 51.996485 373.98513 50.1277801 373.690293 50.1277801 373.690293 46.8379902 374.065142 46.8379902 374.065142 46.506621 373.853604 46.506621 372.000183 45.0051383 370.146761 46.506621 369.935223 46.506621 369.935223 46.8379902 370.311169 46.8379902 370.311169 50.1277801 370.015235 50.1277801 370.015235 51.996485 367 51.996485 367 54.6246229 367 127 397 127 397 54.6246229 397 51.996485"></polygon>
                <rect id="Rectangle" fill="#DADADA" x="372" y="92" width="2" height="11"></rect>
                <rect id="Rectangle" fill="#DADADA" x="376" y="94" width="2" height="11"></rect>
                <rect id="Rectangle" fill="#DADADA" x="379" y="96" width="2" height="11"></rect>
                <rect id="Rectangle" fill="#DADADA" x="372" y="107" width="2" height="11"></rect>
                <rect id="Rectangle" fill="#DADADA" x="376" y="109" width="2" height="11"></rect>
                <rect id="Rectangle" fill="#DADADA" x="379" y="111" width="2" height="11"></rect>
                <rect id="Rectangle" fill="#DADADA" transform="translate(380.000000, 64.500000) rotate(180.000000) translate(-380.000000, -64.500000) " x="379" y="59" width="2" height="11"></rect>
                <rect id="Rectangle" fill="#DADADA" transform="translate(377.000000, 66.500000) rotate(180.000000) translate(-377.000000, -66.500000) " x="376" y="61" width="2" height="11"></rect>
                <rect id="Rectangle" fill="#DADADA" transform="translate(373.000000, 69.500000) rotate(180.000000) translate(-373.000000, -69.500000) " x="372" y="64" width="2" height="11"></rect>
                <rect id="Rectangle" fill="#DADADA" transform="translate(380.000000, 80.500000) rotate(180.000000) translate(-380.000000, -80.500000) " x="379" y="75" width="2" height="11"></rect>
                <rect id="Rectangle" fill="#DADADA" transform="translate(377.000000, 82.500000) rotate(180.000000) translate(-377.000000, -82.500000) " x="376" y="77" width="2" height="11"></rect>
                <rect id="Rectangle" fill="#DADADA" transform="translate(373.000000, 83.500000) rotate(180.000000) translate(-373.000000, -83.500000) " x="372" y="78" width="2" height="11"></rect>
                <rect id="Rectangle" fill="#DADADA" transform="translate(391.000000, 97.500000) rotate(180.000000) translate(-391.000000, -97.500000) " x="390" y="92" width="2" height="11"></rect>
                <rect id="Rectangle" fill="#DADADA" transform="translate(387.000000, 99.500000) rotate(180.000000) translate(-387.000000, -99.500000) " x="386" y="94" width="2" height="11"></rect>
                <rect id="Rectangle" fill="#DADADA" transform="translate(383.000000, 101.500000) rotate(180.000000) translate(-383.000000, -101.500000) " x="382" y="96" width="2" height="11"></rect>
                <rect id="Rectangle" fill="#DADADA" transform="translate(391.000000, 112.500000) rotate(180.000000) translate(-391.000000, -112.500000) " x="390" y="107" width="2" height="11"></rect>
                <rect id="Rectangle" fill="#DADADA" transform="translate(387.000000, 114.500000) rotate(180.000000) translate(-387.000000, -114.500000) " x="386" y="109" width="2" height="11"></rect>
                <rect id="Rectangle" fill="#DADADA" transform="translate(383.000000, 116.500000) rotate(180.000000) translate(-383.000000, -116.500000) " x="382" y="111" width="2" height="11"></rect>
                <rect id="Rectangle" fill="#DADADA" x="382" y="59" width="2" height="11"></rect>
                <rect id="Rectangle" fill="#DADADA" x="386" y="61" width="2" height="11"></rect>
                <rect id="Rectangle" fill="#DADADA" x="390" y="64" width="2" height="11"></rect>
                <rect id="Rectangle" fill="#DADADA" x="382" y="75" width="2" height="11"></rect>
                <rect id="Rectangle" fill="#DADADA" x="386" y="77" width="2" height="11"></rect>
                <rect id="Rectangle" fill="#DADADA" x="390" y="78" width="2" height="11"></rect>
                <path d="M360.107048,103.916491 C360.162017,103.854532 360.214831,103.791486 360.267644,103.72518 C360.842851,102.987661 361.095497,102.045735 360.967391,101.11635 C360.839285,100.186965 360.341473,99.3502476 359.588612,98.7989158 C359.517475,98.745653 359.444183,98.6902162 359.373046,98.6489104 C359.808759,97.9247763 359.962394,97.0632967 359.804178,96.2314323 C359.623717,95.2896655 359.067135,94.4642014 358.265038,93.9487417 C357.922977,93.1941704 357.3301,92.5839464 356.589014,92.2236798 C356.875771,91.5820974 356.958602,90.8667326 356.826136,90.1757801 C356.493087,88.4289783 354.896822,87.2278482 353.136727,87.3104599 C353.186797,87.1522693 353.225342,86.9906014 353.252055,86.8267469 C353.867671,86.1852771 354.212685,85.3280696 354.214556,84.4353567 C354.214556,82.4939826 352.609669,80.9200131 350.630775,80.9200131 C350.541315,80.9200131 350.451855,80.9200131 350.363473,80.930883 C351.24639,80.2781067 351.769587,79.2413703 351.773274,78.1373045 C351.773274,76.3839807 350.463711,74.9306676 348.755352,74.6665277 C348.757723,74.4353175 348.737141,74.2044486 348.693916,73.9773725 C348.350089,72.169699 346.646041,70.946829 344.820198,71.1261832 C344.470157,70.8558131 344.073728,70.6527809 343.650754,70.5272487 C342.830425,69.3731717 341.422069,68.8019872 340.037871,69.0619787 C339.162273,69.2188204 338.375626,69.6979991 337.830477,70.4065922 C337.770119,70.4152881 337.710838,70.4239841 337.65048,70.4359411 C335.704998,70.7924756 334.422382,72.6284111 334.78561,74.5360883 C334.794233,74.5806551 334.803933,74.6241349 334.814711,74.6676147 C334.782376,74.6676147 334.751119,74.6763107 334.719862,74.6828327 C332.774381,75.0393672 331.491764,76.8753027 331.854993,78.7829798 C331.854993,78.8036328 331.864693,78.8242857 331.869005,78.8438516 C330.296452,79.4460471 329.330717,81.0754534 329.65191,82.7624705 C329.811633,83.594914 330.266895,84.3400408 330.932371,84.8581979 C329.369519,85.2364724 328.210853,86.6202177 328.210853,88.26919 C328.210611,88.7309235 328.303002,89.1879333 328.482466,89.6127165 C327.712651,90.5664139 327.50711,91.862387 327.943551,93.0106645 C326.565565,93.5084499 325.641986,94.8205293 325.63053,96.2966521 C325.630524,97.0349711 325.86678,97.7535793 326.304173,98.3456387 C325.516866,99.4102411 325.411005,100.837964 326.03256,102.008814 C325.373368,102.657811 325.001173,103.547233 325,104.476294 C325,106.417668 326.604887,107.99055 328.583782,107.99055 L328.631206,107.99055 C328.90713,109.662349 330.384834,110.939569 332.167563,110.939569 C333.063478,110.942382 333.928779,110.610972 334.59699,110.009101 C334.911534,110.448449 335.19292,110.910998 335.438774,111.392846 C336.287791,113.157294 336.958007,115.003679 337.439225,116.903914 C338.437138,120.851948 338.749294,124.944493 338.361847,129 L342.360593,129 C342.604182,125.406393 342.891962,121.944312 343.682011,118.558321 C344.537807,114.890798 346.053235,111.359149 348.310209,109.186245 L348.447093,109.054719 C349.011826,108.908537 349.54866,108.669058 350.035813,108.345998 C350.581069,109.400258 351.599028,110.12274 352.767095,110.284486 C353.935161,110.446231 355.108536,110.027189 355.915371,109.160157 C356.509432,109.365886 357.145955,109.414172 357.763847,109.30038 C359.709329,108.943845 360.997335,107.106823 360.628717,105.199146 C360.54193,104.740623 360.364517,104.304409 360.107048,103.916491 L360.107048,103.916491 Z M339.520513,122.841083 L338.214184,115.60278 C337.832633,113.489661 337.434914,111.325452 336.55325,109.580825 C336.504747,109.484082 336.451934,109.386252 336.396964,109.288423 C337.106642,109.427593 337.841282,109.351954 338.508431,109.071024 C338.587113,109.877574 338.741243,110.688473 338.879205,111.462414 C339.547014,115.215359 339.763784,119.03581 339.524824,122.841083 L339.520513,122.841083 Z M342.143949,121.239939 C342.620349,116.752097 343.254472,112.293241 344.046317,107.863372 C344.206914,108.590572 345.053009,109.091677 346.181496,109.229725 C344.207991,112.67224 342.89304,116.93761 342.145027,121.239939 L342.143949,121.239939 Z" id="Shape" fill="#DADADA"></path>
                <path d="M84.3799207,95.5100439 C84.0914622,95.1215941 83.7196193,94.805005 83.2926351,94.584323 C84.2908782,93.4890982 84.37128,91.8243958 83.483368,90.6352374 C83.3037071,90.3925997 83.0906883,90.177396 82.8508242,89.9962055 C83.5909574,88.9033038 83.5575093,87.4516418 82.76785,86.3950858 C81.7099559,84.9959249 79.7541046,84.6919357 78.3325004,85.7057192 C77.6878843,85.3785135 76.9550226,85.2762125 76.2473688,85.4146533 C76.4547306,84.379873 76.1262082,83.3093072 75.3766782,82.5773081 C74.1194925,81.3484859 72.1306264,81.3484859 70.8734406,82.5773081 C70.8389578,82.6112293 70.804475,82.6462447 70.7721474,82.6867313 C70.6208595,82.4030742 70.4275069,82.1447331 70.1988709,81.9207685 C68.9412365,80.6930772 66.9532678,80.6930772 65.6956333,81.9207685 C65.6146581,82.0007264 65.5380357,82.0851075 65.4661072,82.1735362 C64.3284989,81.8032686 63.0825439,82.0975014 62.2225692,82.9394991 C62.1439053,83.0171896 62.0695518,83.0981628 62.0005862,83.1813245 C61.3981267,83.3044283 60.8433291,83.6011174 60.4025242,84.0359202 C59.383379,85.0298298 59.1747141,86.6065132 59.8992909,87.8383787 C59.3964138,88.7678301 59.4008941,89.8948641 59.9111443,90.8201627 C59.5474308,90.9749485 59.215541,91.1976466 58.932695,91.4767023 C58.3368017,92.0581145 58,92.8610265 58,93.700183 C58,94.5393396 58.3368017,95.3422516 58.932695,95.9236638 C59.599697,96.5787041 60.5121503,96.9104113 61.437008,96.8340654 C61.437008,96.8822116 61.4402408,96.9303579 61.4467063,96.9785041 C60.1126976,98.0075708 59.8500481,99.9386249 60.8594212,101.296346 C61.3423214,101.94317 62.0469234,102.382147 62.8335613,102.526264 C62.7379719,103.319594 62.9505678,104.119527 63.4262343,104.75631 C63.7286677,105.163875 64.1229585,105.491835 64.57602,105.712669 C65.5577021,106.893346 66.7516689,108.054327 67.393911,109.256889 C68.6957891,111.733538 69.5605024,114.422559 69.9488707,117.202112 C69.9639569,117.311535 69.9801207,117.420959 69.9952069,117.530382 L69.496284,128 L72.5426235,128 L72.0480109,117.714213 C72.3649177,116.444462 72.8354527,115.219448 73.4488744,114.067136 C74.8174104,111.490218 76.6385331,109.454945 78.1471554,107.034502 C78.9638204,105.741757 79.6155819,104.348975 80.0868126,102.889549 C80.4902016,102.792381 80.8711739,102.616604 81.2085811,102.371977 C81.8437637,101.917897 82.2861222,101.236486 82.446729,100.464729 C82.8951976,100.374317 83.3195117,100.187794 83.6913424,99.917613 C84.3732452,99.4374829 84.8324019,98.6953277 84.962414,97.8631238 C85.0924262,97.03092 84.8820087,96.1809031 84.3799207,95.5100439 L84.3799207,95.5100439 Z M67.0663245,105.848354 C67.1963862,105.802649 67.3234408,105.748557 67.4467128,105.686408 C68.0568456,106.007171 68.7507204,106.125432 69.4305511,106.024525 C69.4693443,107.251525 69.5077782,108.478525 69.545853,109.705524 C68.9011253,108.308337 68.066475,107.00995 67.0663245,105.848354 L67.0663245,105.848354 Z M74.5199963,109.964857 C73.7355127,111.195869 72.4348647,112.471744 71.5081396,111.451919 C71.0609408,110.960609 70.9219321,110.093977 70.9262424,109.29847 C70.9327079,107.890192 71.2872342,106.537721 71.5469327,105.175401 L71.5469327,105.167741 C72.6804222,106.098607 74.2852547,106.150468 75.4747387,105.294672 C75.5092215,105.270599 75.5415491,105.244338 75.5749543,105.21917 C76.089749,105.430223 76.6487807,105.505511 77.1999561,105.438017 C76.3465069,106.990368 75.4531869,108.499315 74.5199963,109.964857 L74.5199963,109.964857 Z" id="Shape" fill="#DADADA"></path>
                <polygon id="Path" fill="#DADADA" points="24.8357236 67.6613428 20.6204135 67 1 70.7823129 20.9601416 71 25 69.5956818"></polygon>
                <polygon id="Path" fill="#DADADA" points="29 65.9822007 30.493276 62.2481092 43 48 33.5691232 64.3517771 30.4868209 67"></polygon>
                <polygon id="Path" fill="#DADADA" points="31.070678 71 35.0016591 72.3866941 50 84 32.7873023 75.2422566 30 72.3815582"></polygon>
                <polygon id="Path" fill="#DADADA" points="27.6464968 71 28.5 71 29.3524416 71 31 126 28.5 126 26 126"></polygon>
                <circle id="Oval" fill="#DADADA" cx="27.5" cy="69.5" r="1.5"></circle>
                <circle id="Oval" fill="#DADADA" cx="28" cy="69" r="1"></circle>
                <polygon id="Path" fill="#DADADA" points="517.893364 86 520.709568 87.2880202 531 97 518.861265 89.3221683 517 86.9832058"></polygon>
                <polygon id="Path" fill="#DADADA" points="517.168869 83 518.727361 80.3629957 522 66 516.310345 79.3720195 516 82.5196285"></polygon>
                <polygon id="Path" fill="#DADADA" points="514 83.7743431 510.893217 83 496 84.5 510.893217 86 514 85.2256569"></polygon>
                <polygon id="Path" fill="#DADADA" points="516.682261 87 515.999443 87 515.317739 87 514 128 515.999443 128 518 128"></polygon>
                <circle id="Oval" fill="#DADADA" cx="515" cy="85" r="1"></circle>
                <path d="M516.999578,85.0289005 C517.01136,84.6220385 516.775334,84.2486388 516.402753,84.0847082 C516.030173,83.9207777 515.595404,83.9990356 515.303379,84.2825942 C515.011354,84.5661527 514.92036,84.9984156 515.073288,85.3756302 C515.226217,85.7528447 515.592543,85.9997215 515.999596,85.9998921 C516.260978,86.0037583 516.513187,85.9036231 516.700727,85.7215208 C516.888266,85.5394186 516.995768,85.2902705 516.999578,85.0289005 L516.999578,85.0289005 Z" id="Path" fill="#DADADA"></path>
                <polygon id="Path" fill="#DADADA" points="473.192342 58.6613783 478.10909 58 501 61.7818542 477.712384 62 473 60.594943"></polygon>
                <polygon id="Path" fill="#DADADA" points="468 55.7688164 466.186667 51.2486296 451 34 462.451594 53.7954145 466.194332 57"></polygon>
                <polygon id="Path" fill="#DADADA" points="466.715001 60 461.998887 61.8128229 444 77 464.655665 65.5476884 468 61.806067"></polygon>
                <polygon id="Path" fill="#DADADA" points="471.023843 62 470 62 468.976157 62 467 127 470 127 473 127"></polygon>
                <circle id="Oval" fill="#DADADA" cx="470" cy="59" r="2"></circle>
                <circle id="Oval" fill="#DADADA" cx="470" cy="60" r="1"></circle>
                <path d="M401.650674,123.993952 C401.650674,123.993952 400.952392,123.023471 401.002581,122.05408 C401.05277,121.08469 401.700863,119.969181 402.748286,119.386893 C403.79571,118.804604 408.684775,117.836303 409.134294,117.787234 C409.583813,117.738165 414.097551,114.828902 415.51921,114.477784 C416.788119,114.164831 418.08867,113.592356 425.557014,114.454885 C426.269631,114.536873 426.965871,114.725443 427.622401,115.014275 C429.012419,115.628186 431.441131,116.729519 431.877557,117.108988 C433.225024,118.272475 433.274121,122.10315 432.476552,123.120519 C431.678983,124.137889 428.933862,123.992862 428.933862,123.992862 L401.650674,123.993952 Z" id="Path" fill="#DADADA"></path>
                <path d="M431.689827,119 C431.791791,119 431.88724,118.956314 431.945139,118.883172 C432.003038,118.810031 432.015991,118.716764 431.979786,118.633697 C431.788728,118.22137 431.738153,117.730692 430.948071,117.542647 C430.723297,117.489759 429.861286,117.235116 429.281368,117.01671 C429.203268,116.984239 429.10999,117.000067 429.051577,117.055702 C428.993163,117.111337 428.983338,117.193707 429.027373,117.258621 C429.446577,117.860952 430.232164,118.854062 430.897497,118.943187 C431.159313,118.981441 431.424357,119.000443 431.689827,119 Z" id="Path" fill="#DADADA"></path>
                <path d="M403.518849,119.054896 C403.518849,119.054896 402.171491,119.539285 402.036539,120.185469 C401.979341,120.394318 401.989474,120.614087 402.065689,120.817671 C402.128427,120.954038 402.28951,121.027485 402.444633,120.990453 C402.605091,120.958608 402.744407,120.867273 402.830055,120.737772 C403.045978,120.406191 403.545839,119.618185 403.937739,119.283607 C404.111557,119.134795 403.905351,118.890104 403.518849,119.054896 Z" id="Path" fill="#DADADA"></path>
                <circle id="Oval" fill="#DADADA" cx="406.5" cy="123.5" r="2.5"></circle>
                <circle id="Oval" fill="#DADADA" cx="406" cy="123" r="2"></circle>
                <circle id="Oval" fill="#DADADA" cx="406" cy="123" r="1"></circle>
                <circle id="Oval" fill="#DADADA" cx="427.5" cy="123.5" r="2.5"></circle>
                <circle id="Oval" fill="#DADADA" cx="427" cy="123" r="2"></circle>
                <circle id="Oval" fill="#DADADA" cx="427" cy="123" r="1"></circle>
                <path d="M412.084516,116.428649 C412.084516,116.428649 413.138243,115.034819 415.192855,114.270356 C416.073551,113.94227 417.104483,113.988374 417.718898,114.026972 C417.887785,114.037694 418.023516,114.139551 417.996577,114.287511 C417.871207,114.987643 417.524109,116.721353 417.128314,116.900407 C416.63098,117.124492 412.80047,116.900407 412.80047,116.900407 C412.80047,116.900407 411.690794,116.898262 412.084516,116.428649 Z" id="Path" fill="#DADADA"></path>
                <path d="M420.101318,114.004734 C419.337669,114.061552 419.284368,114.462491 419.244635,114.52038 C419.24113,114.525132 419.238497,114.530594 419.236882,114.536461 C419.087641,115.150733 418.986855,116.037301 419.001391,116.385711 C419.009144,116.563668 419.001391,116.753417 419.063414,116.845611 C419.125436,116.937806 419.380309,116.988191 419.459775,116.990335 C419.997624,117.004271 422.068587,117.002127 422.599653,116.990335 C423.072648,116.968066 423.542118,116.889717 424,116.756633 L421.761383,114.069056 C420.973506,114.014383 420.309674,113.988654 420.101318,114.004734 Z" id="Path" fill="#DADADA"></path>
                <path d="M426.535959,114.323636 C426.190722,114.203636 424.549329,114.081818 423,114 L425.938759,116 C426.342142,115.871818 426.665575,115.727273 426.800036,115.567273 C427.039885,115.297273 427.176769,114.546364 426.535959,114.323636 Z" id="Path" fill="#DADADA"></path>
                <path d="M423,114 L425.228296,117 C425.491601,116.918054 425.749564,116.811651 426,116.681691 L423.659807,114.049063 C423.435048,114.033506 423.212219,114.015556 423,114 Z" id="Path" fill="#DADADA"></path>
                <path d="M445,118.501552 C445,119.880932 446.435061,121 448.206756,121 C448.473586,121.00024 448.739625,120.974153 449,120.922209 L449,116.076748 C448.739482,116.025688 448.47351,116 448.206756,116 C446.435061,116.004149 445,117.122172 445,118.501552 Z M446.353524,118.501552 C446.353524,118.056624 446.819453,117.695698 447.389051,117.695698 C447.475248,117.695439 447.561206,117.703788 447.645312,117.720595 L447.645312,119.283547 C447.561206,119.300354 447.475248,119.308703 447.389051,119.308444 C446.817123,119.308444 446.353524,118.947517 446.353524,118.501552 Z" id="Shape" fill="#DADADA"></path>
                <path d="M448.2035,118.000149 L452,118.000149 L452,118.999859 L448.2035,118.999859 C448.150541,119.002363 448.099162,118.971425 448.060923,118.914003 C448.022683,118.856581 448.000794,118.777499 448.00018,118.694547 L448.00018,118.322216 C447.99784,118.236379 448.018427,118.152892 448.057001,118.091789 C448.095575,118.030686 448.148654,117.997483 448.2035,118.000149 L448.2035,118.000149 Z" id="Path" fill="#DADADA" transform="translate(450.000000, 118.500000) rotate(180.000000) translate(-450.000000, -118.500000) "></path>
                <path d="M448.197763,116 L452,116 L452,117 L448.197763,117 C448.088591,117 448.00009,116.8616 448.00009,116.690875 L448.00009,116.318436 C447.998479,116.23485 448.018592,116.153809 448.055839,116.093807 C448.093086,116.033806 448.144289,115.999962 448.197763,116 Z" id="Path" fill="#DADADA" transform="translate(450.000000, 116.500000) rotate(180.000000) translate(-450.000000, -116.500000) "></path>
                <circle id="Oval" fill="#DADADA" cx="450.5" cy="119.5" r="1"></circle>
                <circle id="Oval" fill="#DADADA" cx="450.5" cy="116.5" r="1"></circle>
                <circle id="Oval" fill="#DADADA" cx="446" cy="118" r="1"></circle>
                <path d="M448,117 L448,119 C446.883271,118.964186 446,118.531058 446,117.99944 C446,117.467823 446.883271,117.034695 448,117 Z" id="Path" fill="#DADADA"></path>
                <path d="M445.246284,118.965749 C445.246284,118.965749 440.813665,119.872577 438.434015,120.420356 C438.434015,120.420356 434.100682,121.535248 433,120.672611 L433,119.913085 C433,119.913085 434.239468,120.840167 437.993102,119.913085 L446,118 L446,118.865399 L445.246284,118.965749 Z" id="Path" fill="#DADADA"></path>
                <polygon id="Path" fill="#DADADA" points="462.021419 120.869121 462.021419 113.691207 460.59071 113.691207 460.59071 113.109407 461.301935 113.109407 461.301935 112 456.697032 112 456.697032 113.109407 457.40929 113.109407 457.40929 113.691207 455.977548 113.691207 455.977548 120.869121 455 122.501022 455.977548 122.501022 455.977548 126 462.021419 126 462.021419 122.501022 463 122.501022"></polygon>
                <rect id="Rectangle" fill="#DADADA" x="456" y="122" width="5" height="2"></rect>
                <polygon id="Path" fill="#DADADA" points="461 117.402023 459.247541 117.402023 459.247541 116 457.752459 116 457.752459 117.402023 456 117.402023 456 118.597977 457.752459 118.597977 457.752459 120 459.247541 120 459.247541 118.597977 461 118.597977"></polygon>
                <path d="M55.4671016,104 L38.5340168,104 C36.582479,104 35,105.418786 35,107.170238 L35,115.280893 C35,117.032345 36.582479,118.451132 38.5340168,118.451132 L45.3560112,118.451132 L45.3560112,126 L48.6439888,126 L48.6439888,118.451132 L55.4659832,118.451132 C57.417521,118.451132 59,117.032345 59,115.280893 L59,107.170238 C59,105.418786 57.4186393,104 55.4671016,104 Z" id="Path" fill="#DADADA"></path>
                <rect id="Rectangle" fill="#DADADA" x="36" y="108" width="4" height="2"></rect>
                <rect id="Rectangle" fill="#DADADA" x="43" y="108" width="4" height="2"></rect>
                <rect id="Rectangle" fill="#DADADA" x="48" y="108" width="4" height="2"></rect>
                <rect id="Rectangle" fill="#DADADA" x="54" y="108" width="4" height="2"></rect>
                <rect id="Rectangle" fill="#DADADA" x="36" y="111" width="4" height="2"></rect>
                <rect id="Rectangle" fill="#DADADA" x="43" y="111" width="4" height="2"></rect>
                <rect id="Rectangle" fill="#DADADA" x="48" y="111" width="4" height="2"></rect>
                <rect id="Rectangle" fill="#DADADA" x="54" y="111" width="4" height="2"></rect>
                <rect id="Rectangle" fill="#DADADA" x="36" y="115" width="4" height="2"></rect>
                <rect id="Rectangle" fill="#DADADA" x="43" y="115" width="4" height="2"></rect>
                <rect id="Rectangle" fill="#DADADA" x="48" y="115" width="4" height="2"></rect>
                <rect id="Rectangle" fill="#DADADA" x="54" y="115" width="4" height="2"></rect>
                <path d="M508.232524,115 L499.767466,115 C498.791484,115 498,115.709816 498,116.585256 L498,120.639812 C498,121.516328 498.791484,122.225068 499.767466,122.225068 L503.177943,122.225068 L503.177943,126 L504.822047,126 L504.822047,122.225068 L508.232524,122.225068 C509.208506,122.225068 510,121.516328 510,120.639812 L510,116.585256 C510.003265,115.707665 509.215056,115 508.232524,115 Z" id="Path" fill="#DADADA"></path>
                <rect id="Rectangle" fill="#DADADA" x="499" y="117" width="2" height="1"></rect>
                <rect id="Rectangle" fill="#DADADA" x="502" y="117" width="2" height="1"></rect>
                <rect id="Rectangle" fill="#DADADA" x="504" y="117" width="2" height="1"></rect>
                <rect id="Rectangle" fill="#DADADA" x="508" y="117" width="2" height="1"></rect>
                <rect id="Rectangle" fill="#DADADA" x="499" y="119" width="2" height="1"></rect>
                <rect id="Rectangle" fill="#DADADA" x="502" y="119" width="2" height="1"></rect>
                <rect id="Rectangle" fill="#DADADA" x="504" y="119" width="2" height="1"></rect>
                <rect id="Rectangle" fill="#DADADA" x="508" y="119" width="2" height="1"></rect>
                <rect id="Rectangle" fill="#DADADA" x="499" y="120" width="2" height="1"></rect>
                <rect id="Rectangle" fill="#DADADA" x="502" y="120" width="2" height="1"></rect>
                <rect id="Rectangle" fill="#DADADA" x="504" y="120" width="2" height="1"></rect>
                <rect id="Rectangle" fill="#DADADA" x="508" y="120" width="2" height="1"></rect>
                <path d="M491.339531,111 L478.649239,111 C477.189294,111 476,112.096554 476,113.449578 L476,119.718855 C476,121.071879 477.185925,122.168432 478.649239,122.168432 L483.764662,122.168432 L483.764662,128 L486.235338,128 L486.235338,122.168432 L491.349638,122.168432 C492.809583,122.168432 494,121.071879 494,119.718855 L494,113.449578 C493.989893,112.096554 492.803968,111 491.339531,111 Z" id="Path" fill="#DADADA"></path>
                <rect id="Rectangle" fill="#DADADA" x="477" y="113" width="3" height="2"></rect>
                <rect id="Rectangle" fill="#DADADA" x="482" y="113" width="3" height="2"></rect>
                <rect id="Rectangle" fill="#DADADA" x="486" y="113" width="3" height="2"></rect>
                <rect id="Rectangle" fill="#DADADA" x="491" y="113" width="3" height="2"></rect>
                <rect id="Rectangle" fill="#DADADA" x="477" y="115" width="3" height="2"></rect>
                <rect id="Rectangle" fill="#DADADA" x="482" y="115" width="3" height="2"></rect>
                <rect id="Rectangle" fill="#DADADA" x="486" y="115" width="3" height="2"></rect>
                <rect id="Rectangle" fill="#DADADA" x="491" y="115" width="3" height="2"></rect>
                <rect id="Rectangle" fill="#DADADA" x="477" y="118" width="3" height="2"></rect>
                <rect id="Rectangle" fill="#DADADA" x="482" y="118" width="3" height="2"></rect>
                <rect id="Rectangle" fill="#DADADA" x="486" y="118" width="3" height="2"></rect>
                <rect id="Rectangle" fill="#DADADA" x="491" y="118" width="3" height="2"></rect>
                <polygon id="Path" fill="#DADADA" points="123 108.769794 122.244018 108.769794 122.244018 98.6121605 122.244018 98.3667968 122.244018 97.0231383 115.392592 97.0231383 113.138705 95.7283401 113.138705 92.8997531 113.492362 92.8997531 113.492362 90 110.456536 90 110.456536 92.8997531 110.811275 92.8997531 110.811275 94.3910547 107.076788 92.246512 98.7620657 97.0231383 91.7559822 97.0231383 91.7559822 98.3667968 91.7559822 98.6121605 91.7559822 108.769794 91 108.769794 91 110.476718 91.7559822 110.476718 91.7559822 127 122.244018 127 122.244018 110.476718 123 110.476718"></polygon>
                <rect id="Rectangle" fill="#DADADA" x="94" y="106" width="2" height="5"></rect>
                <polygon id="Path" fill="#DADADA" points="98.9976471 106 97 106 97 111 98.9976471 111 99.0141176 111 101 111 101 106 99.0141176 106"></polygon>
                <rect id="Rectangle" fill="#DADADA" x="102" y="106" width="2" height="5"></rect>
                <polygon id="Path" fill="#DADADA" points="99.0215909 105 99.0034091 105 94 105 94 106 99.0034091 106 99.0215909 106 104 106 104 105"></polygon>
                <rect id="Rectangle" fill="#DADADA" x="110" y="106" width="2" height="5"></rect>
                <polygon id="Path" fill="#DADADA" points="115.017647 106 113 106 113 111 115.017647 111 115.034118 111 117 111 117 106 115.034118 106"></polygon>
                <rect id="Rectangle" fill="#DADADA" x="117" y="106" width="2" height="5"></rect>
                <polygon id="Path" fill="#DADADA" points="115.042045 105 115.022727 105 110 105 110 106 115.022727 106 115.042045 106 120 106 120 105"></polygon>
                <path d="M105,117.416893 L105,122 L107,122 L107,115 C105.900047,115 105,116.087602 105,117.416893 Z" id="Path" fill="#DADADA"></path>
                <path d="M110,117.416893 C110,116.087602 109.100047,115 108,115 L108,115 L108,122 L110,122 L110,117.416893 Z" id="Path" fill="#DADADA"></path>
                <polygon id="Rectangle" fill="#0099CC" transform="translate(189.800096, 72.789428) rotate(-89.920000) translate(-189.800096, -72.789428) " points="136.64748 54.0408327 242.952712 54.0408327 242.952712 91.5380231 136.64748 91.5380231"></polygon>
                <polygon id="Path" fill="#0099CC" points="172.015051 0 172 19.9481837 209 20"></polygon>
                <rect id="Rectangle" fill="#FFFFFF" x="177" y="16" width="2" height="18"></rect>
                <rect id="Rectangle" fill="#FFFFFF" x="181" y="19" width="2" height="18"></rect>
                <rect id="Rectangle" fill="#FFFFFF" x="186" y="23" width="2" height="18"></rect>
                <rect id="Rectangle" fill="#FFFFFF" x="177" y="40" width="2" height="18"></rect>
                <rect id="Rectangle" fill="#FFFFFF" x="181" y="44" width="2" height="18"></rect>
                <rect id="Rectangle" fill="#FFFFFF" x="186" y="47" width="2" height="18"></rect>
                <rect id="Rectangle" fill="#FFFFFF" x="192" y="26" width="2" height="18"></rect>
                <rect id="Rectangle" fill="#FFFFFF" x="196" y="29" width="2" height="18"></rect>
                <rect id="Rectangle" fill="#FFFFFF" x="201" y="32" width="2" height="18"></rect>
                <rect id="Rectangle" fill="#FFFFFF" x="192" y="50" width="2" height="18"></rect>
                <rect id="Rectangle" fill="#FFFFFF" x="196" y="53" width="2" height="18"></rect>
                <rect id="Rectangle" fill="#FFFFFF" x="201" y="57" width="2" height="18"></rect>
                <rect id="Rectangle" fill="#FFFFFF" x="177" y="65" width="2" height="18"></rect>
                <rect id="Rectangle" fill="#FFFFFF" x="181" y="68" width="2" height="18"></rect>
                <rect id="Rectangle" fill="#FFFFFF" x="186" y="72" width="2" height="18"></rect>
                <rect id="Rectangle" fill="#FFFFFF" x="177" y="90" width="2" height="18"></rect>
                <rect id="Rectangle" fill="#FFFFFF" x="181" y="93" width="2" height="18"></rect>
                <rect id="Rectangle" fill="#FFFFFF" x="186" y="96" width="2" height="18"></rect>
                <rect id="Rectangle" fill="#FFFFFF" x="192" y="74" width="2" height="18"></rect>
                <rect id="Rectangle" fill="#FFFFFF" x="196" y="77" width="2" height="18"></rect>
                <rect id="Rectangle" fill="#FFFFFF" x="201" y="81" width="2" height="18"></rect>
                <rect id="Rectangle" fill="#FFFFFF" x="192" y="98" width="2" height="18"></rect>
                <rect id="Rectangle" fill="#FFFFFF" x="196" y="101" width="2" height="18"></rect>
                <rect id="Rectangle" fill="#FFFFFF" x="201" y="105" width="2" height="18"></rect>
                <path d="M241.663588,46.2279675 L239.663112,42.61296 L231.536249,37.219191 L231.536249,36.2115876 L231.130938,30.3362515 C231.558781,30.1157336 232.039436,30.0177535 232.519644,30.0531681 C233.023838,30.0878756 233.457401,30.3221515 233.942035,30.4479664 C234.485348,30.5900504 235.084078,30.5087046 235.61761,30.3492668 C235.688241,30.3286592 236.455397,30.1084832 236.455397,30.0011067 L236.455397,28 C236.171789,28.3329755 235.713233,28.4338443 235.327481,28.4750595 C234.835678,28.5332349 234.337672,28.5112563 233.852932,28.4099828 C233.391117,28.3015218 232.994499,28.063992 232.510951,28.0466383 C232.141432,28.0349257 231.772955,28.0919339 231.424327,28.2147529 C231.390641,28.2266836 230.997283,28.3492446 230.99837,28.4002213 L230.99837,28.4718057 L230.434412,36.2137568 L230.434412,37.2419678 L222.333628,42.6238061 L220.333152,46.2301367 L215,48.4069504 L217.151516,48.4069504 L217.151516,126 L245.087541,126 L245.087541,48.4069504 L247,48.4069504 L241.663588,46.2279675 Z" id="Path" fill="#0099CC"></path>
                <polygon id="Rectangle" fill="#F9F9F9" transform="translate(232.000000, 49.500000) rotate(-90.000000) translate(-232.000000, -49.500000) " points="231 38 233 38 233 61 231 61"></polygon>
                <rect id="Rectangle" fill="#F9F9F9" transform="translate(237.000000, 52.500000) rotate(-90.000000) translate(-237.000000, -52.500000) " x="236" y="47" width="2" height="11"></rect>
                <polygon id="Rectangle" fill="#F9F9F9" transform="translate(232.000000, 55.500000) rotate(-90.000000) translate(-232.000000, -55.500000) " points="231 44 233 44 233 67 231 67"></polygon>
                <rect id="Rectangle" fill="#F9F9F9" transform="translate(227.000000, 58.500000) rotate(-90.000000) translate(-227.000000, -58.500000) " x="226" y="53" width="2" height="11"></rect>
                <polygon id="Rectangle" fill="#F9F9F9" transform="translate(232.000000, 61.500000) rotate(-90.000000) translate(-232.000000, -61.500000) " points="231 50 233 50 233 73 231 73"></polygon>
                <polygon id="Rectangle" fill="#F9F9F9" transform="translate(237.000000, 64.500000) rotate(-90.000000) translate(-237.000000, -64.500000) " points="236 59 238 59 238 70 236 70"></polygon>
                <polygon id="Rectangle" fill="#F9F9F9" transform="translate(232.000000, 67.500000) rotate(-90.000000) translate(-232.000000, -67.500000) " points="231 56 233 56 233 79 231 79"></polygon>
                <rect id="Rectangle" fill="#F9F9F9" transform="translate(237.000000, 70.500000) rotate(-90.000000) translate(-237.000000, -70.500000) " x="236" y="65" width="2" height="11"></rect>
                <rect id="Rectangle" fill="#F9F9F9" transform="translate(232.000000, 73.500000) rotate(-90.000000) translate(-232.000000, -73.500000) " x="231" y="62" width="2" height="23"></rect>
                <rect id="Rectangle" fill="#F9F9F9" transform="translate(227.000000, 76.500000) rotate(-90.000000) translate(-227.000000, -76.500000) " x="226" y="71" width="2" height="11"></rect>
                <polygon id="Rectangle" fill="#F9F9F9" transform="translate(232.000000, 79.500000) rotate(-90.000000) translate(-232.000000, -79.500000) " points="231 68 233 68 233 91 231 91"></polygon>
                <polygon id="Rectangle" fill="#F9F9F9" transform="translate(237.000000, 82.500000) rotate(-90.000000) translate(-237.000000, -82.500000) " points="236 77 238 77 238 88 236 88"></polygon>
                <rect id="Rectangle" fill="#F9F9F9" transform="translate(232.000000, 85.500000) rotate(-90.000000) translate(-232.000000, -85.500000) " x="231" y="74" width="2" height="23"></rect>
                <rect id="Rectangle" fill="#F9F9F9" transform="translate(237.000000, 88.500000) rotate(-90.000000) translate(-237.000000, -88.500000) " x="236" y="83" width="2" height="11"></rect>
                <polygon id="Rectangle" fill="#F9F9F9" transform="translate(232.000000, 91.500000) rotate(-90.000000) translate(-232.000000, -91.500000) " points="231 80 233 80 233 103 231 103"></polygon>
                <rect id="Rectangle" fill="#F9F9F9" transform="translate(227.000000, 94.500000) rotate(-90.000000) translate(-227.000000, -94.500000) " x="226" y="89" width="2" height="11"></rect>
                <polygon id="Rectangle" fill="#F9F9F9" transform="translate(232.000000, 97.500000) rotate(-90.000000) translate(-232.000000, -97.500000) " points="231 86 233 86 233 109 231 109"></polygon>
                <polygon id="Rectangle" fill="#F9F9F9" transform="translate(237.000000, 99.500000) rotate(-90.000000) translate(-237.000000, -99.500000) " points="236 94 238 94 238 105 236 105"></polygon>
                <polygon id="Rectangle" fill="#F9F9F9" transform="translate(232.000000, 103.500000) rotate(-90.000000) translate(-232.000000, -103.500000) " points="231 92 233 92 233 115 231 115"></polygon>
                <polygon id="Rectangle" fill="#F9F9F9" transform="translate(237.000000, 106.500000) rotate(-90.000000) translate(-237.000000, -106.500000) " points="236 101 238 101 238 112 236 112"></polygon>
                <polygon id="Rectangle" fill="#F9F9F9" transform="translate(232.000000, 108.500000) rotate(-90.000000) translate(-232.000000, -108.500000) " points="231 97 233 97 233 120 231 120"></polygon>
                <rect id="Rectangle" fill="#F9F9F9" transform="translate(227.000000, 111.500000) rotate(-90.000000) translate(-227.000000, -111.500000) " x="226" y="106" width="2" height="11"></rect>
                <polygon id="Rectangle" fill="#F9F9F9" transform="translate(232.000000, 114.500000) rotate(-90.000000) translate(-232.000000, -114.500000) " points="231 103 233 103 233 126 231 126"></polygon>
                <rect id="Rectangle" fill="#F9F9F9" transform="translate(237.000000, 117.500000) rotate(-90.000000) translate(-237.000000, -117.500000) " x="236" y="112" width="2" height="11"></rect>
                <rect id="Rectangle" fill="#0099CC" x="293" y="73" width="25" height="55"></rect>
                <polygon id="Path" fill="#0099CC" points="289 74 291.909189 72.1200197 297.727568 70.9936055 304.999459 68 312.272432 70.9896704 318.090811 72.1210034 321 74"></polygon>
                <rect id="Rectangle" fill="#F9F9F9" x="303" y="72" width="3" height="54"></rect>
                <rect id="Rectangle" fill="#F9F9F9" x="309" y="76" width="3" height="50"></rect>
                <rect id="Rectangle" fill="#F9F9F9" x="297" y="76" width="3" height="50"></rect>
                <polygon id="Path" fill="#0099CC" points="255 57.8500137 255 129 283 129 283 57.8500137 283 49"></polygon>
                <rect id="Rectangle" fill="#F9F9F9" x="267" y="66" width="2" height="55"></rect>
                <rect id="Rectangle" fill="#F9F9F9" x="263" y="70" width="2" height="32"></rect>
                <rect id="Rectangle" fill="#F9F9F9" x="259" y="70" width="2" height="32"></rect>
                <rect id="Rectangle" fill="#F9F9F9" x="277" y="85" width="2" height="32"></rect>
                <rect id="Rectangle" fill="#F9F9F9" x="273" y="85" width="2" height="32"></rect>
                <polygon id="Path" fill="#0099CC" points="161.949088 58.5839159 160.044773 56.198981 160.044773 53.7975451 158.221701 53 134.855389 53 133.945478 53.7975451 133.945478 56.198981 132.053078 58.5839159 132 58.5839159 132 129 162 129 162 58.5839159"></polygon>
                <polygon id="Rectangle" fill="#F9F9F9" transform="translate(144.000000, 64.500000) rotate(-90.000000) translate(-144.000000, -64.500000) " points="143 54 145 54 145 75 143 75"></polygon>
                <polygon id="Rectangle" fill="#F9F9F9" transform="translate(144.000000, 66.500000) rotate(-90.000000) translate(-144.000000, -66.500000) " points="143 56 145 56 145 77 143 77"></polygon>
                <rect id="Rectangle" fill="#F9F9F9" transform="translate(144.000000, 68.500000) rotate(-90.000000) translate(-144.000000, -68.500000) " x="143" y="58" width="2" height="21"></rect>
                <polygon id="Rectangle" fill="#F9F9F9" transform="translate(149.000000, 71.500000) rotate(-90.000000) translate(-149.000000, -71.500000) " points="148 61 150 61 150 82 148 82"></polygon>
                <polygon id="Rectangle" fill="#F9F9F9" transform="translate(149.000000, 74.500000) rotate(-90.000000) translate(-149.000000, -74.500000) " points="148 64 150 64 150 85 148 85"></polygon>
                <rect id="Rectangle" fill="#F9F9F9" transform="translate(149.000000, 76.500000) rotate(-90.000000) translate(-149.000000, -76.500000) " x="148" y="66" width="2" height="21"></rect>
                <polygon id="Rectangle" fill="#F9F9F9" transform="translate(144.000000, 79.500000) rotate(-90.000000) translate(-144.000000, -79.500000) " points="143 69 145 69 145 90 143 90"></polygon>
                <polygon id="Rectangle" fill="#F9F9F9" transform="translate(144.000000, 81.500000) rotate(-90.000000) translate(-144.000000, -81.500000) " points="143 71 145 71 145 92 143 92"></polygon>
                <polygon id="Rectangle" fill="#F9F9F9" transform="translate(144.000000, 83.500000) rotate(-90.000000) translate(-144.000000, -83.500000) " points="143 73 145 73 145 94 143 94"></polygon>
                <polygon id="Rectangle" fill="#F9F9F9" transform="translate(149.000000, 86.500000) rotate(-90.000000) translate(-149.000000, -86.500000) " points="148 76 150 76 150 97 148 97"></polygon>
                <polygon id="Rectangle" fill="#F9F9F9" transform="translate(149.000000, 89.500000) rotate(-90.000000) translate(-149.000000, -89.500000) " points="148 79 150 79 150 100 148 100"></polygon>
                <polygon id="Rectangle" fill="#F9F9F9" transform="translate(149.000000, 91.500000) rotate(-90.000000) translate(-149.000000, -91.500000) " points="148 81 150 81 150 102 148 102"></polygon>
                <rect id="Rectangle" fill="#F9F9F9" transform="translate(144.000000, 95.500000) rotate(-90.000000) translate(-144.000000, -95.500000) " x="143" y="85" width="2" height="21"></rect>
                <polygon id="Rectangle" fill="#F9F9F9" transform="translate(144.000000, 97.500000) rotate(-90.000000) translate(-144.000000, -97.500000) " points="143 87 145 87 145 108 143 108"></polygon>
                <rect id="Rectangle" fill="#F9F9F9" transform="translate(144.000000, 99.500000) rotate(-90.000000) translate(-144.000000, -99.500000) " x="143" y="89" width="2" height="21"></rect>
                <polygon id="Rectangle" fill="#F9F9F9" transform="translate(149.000000, 103.500000) rotate(-90.000000) translate(-149.000000, -103.500000) " points="148 93 150 93 150 114 148 114"></polygon>
                <polygon id="Rectangle" fill="#F9F9F9" transform="translate(149.000000, 105.500000) rotate(-90.000000) translate(-149.000000, -105.500000) " points="148 95 150 95 150 116 148 116"></polygon>
                <polygon id="Rectangle" fill="#F9F9F9" transform="translate(149.000000, 107.500000) rotate(-90.000000) translate(-149.000000, -107.500000) " points="148 97 150 97 150 118 148 118"></polygon>
                <rect id="Rectangle" fill="#F9F9F9" transform="translate(144.000000, 110.500000) rotate(-90.000000) translate(-144.000000, -110.500000) " x="143" y="100" width="2" height="21"></rect>
                <rect id="Rectangle" fill="#F9F9F9" transform="translate(144.000000, 112.500000) rotate(-90.000000) translate(-144.000000, -112.500000) " x="143" y="102" width="2" height="21"></rect>
                <polygon id="Rectangle" fill="#F9F9F9" transform="translate(144.000000, 114.500000) rotate(-90.000000) translate(-144.000000, -114.500000) " points="143 104 145 104 145 125 143 125"></polygon>
                <polygon id="Rectangle" fill="#F9F9F9" transform="translate(149.000000, 118.500000) rotate(-90.000000) translate(-149.000000, -118.500000) " points="148 108 150 108 150 129 148 129"></polygon>
                <polygon id="Rectangle" fill="#F9F9F9" transform="translate(149.000000, 120.500000) rotate(-90.000000) translate(-149.000000, -120.500000) " points="148 110 150 110 150 131 148 131"></polygon>
                <polygon id="Rectangle" fill="#F9F9F9" transform="translate(149.000000, 123.500000) rotate(-90.000000) translate(-149.000000, -123.500000) " points="148 113 150 113 150 134 148 134"></polygon>
                <polygon id="Path" fill="#0099CC" points="392.985861 50.2303323 392.985861 48.3183632 392.689927 48.3183632 392.689927 44.9518701 393.064777 44.9518701 393.064777 44.612301 392.853239 44.612301 390.999817 43.0755883 389.147492 44.612301 388.934858 44.612301 388.934858 44.9518701 389.310803 44.9518701 389.310803 48.3183632 389.01487 48.3183632 389.01487 50.2303323 386.000731 50.2303323 386.000731 52.9209313 383.106061 52.9209313 383.106061 44.8166913 383.574075 44.8166913 383.574075 43.9461398 383.309927 43.9461398 381.000548 40 378.691169 43.9461398 378.427021 43.9461398 378.427021 44.8166913 378.895035 44.8166913 378.895035 52.9209313 376.000365 52.9209313 376.000365 50.2303323 372.98513 50.2303323 372.98513 48.3183632 372.690293 48.3183632 372.690293 44.9518701 373.065142 44.9518701 373.065142 44.612301 372.853604 44.612301 371.000183 43.0755883 369.146761 44.612301 368.935223 44.612301 368.935223 44.9518701 369.311169 44.9518701 369.311169 48.3183632 369.015235 48.3183632 369.015235 50.2303323 366 50.2303323 366 52.9209313 366 127 396 127 396 52.9209313 396 50.2303323"></polygon>
                <rect id="Rectangle" fill="#FFFFFF" x="370" y="91" width="2" height="11"></rect>
                <rect id="Rectangle" fill="#FFFFFF" x="374" y="93" width="2" height="11"></rect>
                <rect id="Rectangle" fill="#FFFFFF" x="378" y="95" width="2" height="11"></rect>
                <rect id="Rectangle" fill="#FFFFFF" x="370" y="106" width="2" height="11"></rect>
                <rect id="Rectangle" fill="#FFFFFF" x="374" y="108" width="2" height="11"></rect>
                <rect id="Rectangle" fill="#FFFFFF" x="378" y="110" width="2" height="11"></rect>
                <rect id="Rectangle" fill="#FFFFFF" transform="translate(379.000000, 63.500000) rotate(180.000000) translate(-379.000000, -63.500000) " x="378" y="58" width="2" height="11"></rect>
                <rect id="Rectangle" fill="#FFFFFF" transform="translate(375.000000, 65.500000) rotate(180.000000) translate(-375.000000, -65.500000) " x="374" y="60" width="2" height="11"></rect>
                <rect id="Rectangle" fill="#FFFFFF" transform="translate(371.000000, 66.500000) rotate(180.000000) translate(-371.000000, -66.500000) " x="370" y="61" width="2" height="11"></rect>
                <rect id="Rectangle" fill="#FFFFFF" transform="translate(379.000000, 78.500000) rotate(180.000000) translate(-379.000000, -78.500000) " x="378" y="73" width="2" height="11"></rect>
                <rect id="Rectangle" fill="#FFFFFF" transform="translate(375.000000, 80.500000) rotate(180.000000) translate(-375.000000, -80.500000) " x="374" y="75" width="2" height="11"></rect>
                <rect id="Rectangle" fill="#FFFFFF" transform="translate(371.000000, 82.500000) rotate(180.000000) translate(-371.000000, -82.500000) " x="370" y="77" width="2" height="11"></rect>
                <rect id="Rectangle" fill="#FFFFFF" transform="translate(389.000000, 96.500000) rotate(180.000000) translate(-389.000000, -96.500000) " x="388" y="91" width="2" height="11"></rect>
                <rect id="Rectangle" fill="#FFFFFF" transform="translate(386.000000, 98.500000) rotate(180.000000) translate(-386.000000, -98.500000) " x="385" y="93" width="2" height="11"></rect>
                <rect id="Rectangle" fill="#FFFFFF" transform="translate(382.000000, 100.500000) rotate(180.000000) translate(-382.000000, -100.500000) " x="381" y="95" width="2" height="11"></rect>
                <rect id="Rectangle" fill="#FFFFFF" transform="translate(389.000000, 111.500000) rotate(180.000000) translate(-389.000000, -111.500000) " x="388" y="106" width="2" height="11"></rect>
                <rect id="Rectangle" fill="#FFFFFF" transform="translate(386.000000, 113.500000) rotate(180.000000) translate(-386.000000, -113.500000) " x="385" y="108" width="2" height="11"></rect>
                <rect id="Rectangle" fill="#FFFFFF" transform="translate(382.000000, 115.500000) rotate(180.000000) translate(-382.000000, -115.500000) " x="381" y="110" width="2" height="11"></rect>
                <rect id="Rectangle" fill="#FFFFFF" x="381" y="58" width="2" height="11"></rect>
                <rect id="Rectangle" fill="#FFFFFF" x="385" y="60" width="2" height="11"></rect>
                <rect id="Rectangle" fill="#FFFFFF" x="388" y="61" width="2" height="11"></rect>
                <rect id="Rectangle" fill="#FFFFFF" x="381" y="73" width="2" height="11"></rect>
                <rect id="Rectangle" fill="#FFFFFF" x="385" y="75" width="2" height="11"></rect>
                <rect id="Rectangle" fill="#FFFFFF" x="388" y="77" width="2" height="11"></rect>
                <path d="M359.106698,103.082254 C359.161645,103.018896 359.214436,102.953353 359.267228,102.884534 C359.843016,102.118243 360.094982,101.151416 359.967691,100.196758 C359.8404,99.2421 359.34428,98.3778171 358.58848,97.794055 C358.517373,97.7394361 358.444112,97.6848173 358.373005,97.6389374 C358.705578,95.0771782 357.638312,92.5346427 355.586908,91.0016524 C356.080837,89.8520068 355.95476,88.5253228 355.253425,87.4924495 C354.552089,86.4595762 353.374769,85.8667172 352.139302,85.9242822 C352.353533,84.8844818 352.716494,83.8820092 353.216679,82.9486462 C353.216679,80.9426625 351.612839,79.3164914 349.634401,79.3164914 C349.544979,79.3164914 349.455557,79.3164914 349.367212,79.3274152 C350.506989,78.4454508 351.018092,76.9592255 350.666266,75.5499254 C350.31444,74.1406253 349.167508,73.0799282 347.751147,72.8539867 C347.753529,72.6151183 347.732962,72.3765823 347.689736,72.1417567 C346.212245,70.682661 344.509442,69.4782723 342.64869,68.5762369 C341.995768,67.61174 340.924532,67.0252714 339.771013,67.0007969 C338.617494,66.9763223 337.523,67.51684 336.830855,68.4527982 C336.770522,68.4604449 336.711266,68.4702763 336.650933,68.4812 C334.705954,68.8500317 333.423955,70.7474781 333.787265,72.7196243 C333.795884,72.7655042 333.805581,72.8102916 333.816355,72.8550791 L333.721545,72.8703724 C332.787607,73.0472371 331.961216,73.593033 331.424173,74.3876889 C330.887129,75.1823447 330.683427,76.160765 330.857878,77.1077043 C330.857878,77.1295519 330.867574,77.150307 330.871884,77.1710622 C329.681134,77.6431306 328.828918,78.7230474 328.635859,80.0045208 C328.442801,81.2859942 328.938188,82.5746247 329.935643,83.3855972 C328.922646,83.6398293 328.069347,84.3293049 327.598844,85.2737577 C327.128341,86.2182105 327.087415,87.323738 327.486766,88.3012955 C326.716377,89.2970164 326.512319,90.6273748 326.948077,91.8132888 C325.908484,92.2121865 325.110599,93.0780535 324.788606,94.156752 C324.466613,95.2354505 324.657041,96.404603 325.304,97.3210556 C324.516528,98.4302116 324.411545,99.8942522 325.032501,101.107236 C324.017827,102.149584 323.720085,103.707953 324.277462,105.05908 C324.83484,106.410206 326.138208,107.289552 327.582652,107.288999 L327.630057,107.288999 C327.842122,108.607854 328.751283,109.702137 329.997111,110.138029 C331.24294,110.573921 332.624213,110.281019 333.593338,109.37544 C333.908698,109.830068 334.189965,110.308051 334.434769,110.805362 C335.284561,112.632182 335.954348,114.539626 336.43438,116.499925 C337.43222,120.584495 337.743998,124.810365 337.356615,129 L341.367689,129 C341.611176,125.285917 341.898836,121.708381 342.688553,118.209496 C343.54399,114.418947 345.058782,110.770406 347.314809,108.524478 L347.451636,108.389023 C348.017612,108.236771 348.554405,107.989377 349.039689,107.65713 C349.561475,108.741154 350.580129,109.49169 351.758152,109.66007 C352.936175,109.82845 354.119766,109.392691 354.91678,108.497169 C356.365281,109.013186 357.977046,108.536247 358.924417,107.311265 C359.871789,106.086282 359.944231,104.385487 359.104544,103.082254 L359.106698,103.082254 Z M338.528801,122.635809 L337.22302,115.155209 C336.841629,112.970454 336.444077,110.73545 335.562782,108.928658 C335.5143,108.828159 335.461509,108.72766 335.406563,108.626069 C336.115754,108.770024 336.851275,108.693888 337.517144,108.407594 C337.595792,109.241078 337.749857,110.078931 337.887762,110.87309 C338.555943,114.756005 338.77254,118.704994 338.53311,122.639086 L338.528801,122.635809 Z M341.151136,120.980858 C341.627337,116.342623 342.261193,111.734975 343.052706,107.157914 C343.213235,107.90947 344.058976,108.427257 345.18699,108.569266 C343.214313,112.130416 341.899913,116.538159 341.152213,120.984135 L341.151136,120.980858 Z" id="Shape" fill="#0099CC"></path>
                <path d="M82.3850548,93.8300993 C82.0992526,93.4350128 81.7271583,93.1115043 81.2975479,92.8845924 C81.8864847,92.2175542 82.1734675,91.3334191 82.0896303,90.4443489 C82.0057932,89.5552787 81.5587034,88.7415235 80.8556471,88.1983563 C81.7122728,86.9047533 81.5267352,85.1781623 80.4151989,84.0995959 C79.3036625,83.0210295 77.5854819,82.9003696 76.3364039,83.8131609 C75.6945433,83.4791814 74.9594333,83.3742207 74.250848,83.5153806 C74.5257283,82.1278181 73.8672532,80.7224036 72.6297119,80.0553126 C71.3921706,79.3882217 69.8674128,79.6167747 68.8758263,80.6179999 C68.8413365,80.6527772 68.8068467,80.6886412 68.7745125,80.7266789 C68.2770684,79.7656836 67.3326677,79.1223263 66.2628251,79.0156334 C65.1929826,78.9089406 64.1418929,79.3532924 63.4673926,80.1974124 C62.2123155,79.783814 60.8342497,80.1925563 60.0011664,81.2255152 C59.0006007,81.4369218 58.1614913,82.1197791 57.7453077,83.0613064 C57.3291241,84.0028337 57.3864579,85.0885786 57.8994435,85.9802191 C57.3972729,86.9324316 57.4017246,88.0750249 57.9112994,89.0232295 C56.4854799,89.6507346 55.7178884,91.2250611 56.0958321,92.7467442 C56.4737758,94.2684272 57.8866438,95.2921235 59.4374736,95.1679371 C59.4374736,95.2164803 59.440707,95.2653858 59.4471738,95.3146536 C58.47084,96.0954859 58.0360272,97.3788848 58.3344964,98.5988468 C58.6329655,99.8188087 59.6098445,100.75105 60.834311,100.984434 C60.674833,102.331457 61.3725485,103.634098 62.5771243,104.238282 C63.5590062,105.443531 64.7532159,106.629219 65.3955887,107.858377 C66.7005149,110.396113 67.5648321,113.140429 67.9510682,115.972347 C67.9661575,116.081026 67.9823246,116.195139 67.9974139,116.307079 L67.4983894,127 L70.5453488,127 L70.0506356,116.490746 C70.3664284,115.196651 70.8369226,113.946019 71.4517842,112.766319 C72.8205986,110.134115 74.6420919,108.055086 76.1510212,105.583727 C76.9699408,104.257721 77.6216544,102.833907 78.0910731,101.345248 C79.2863002,101.048722 80.205214,100.084494 80.4514697,98.8684551 C81.5149815,98.6500707 82.3949061,97.9004502 82.7860405,96.8796005 C83.1771748,95.8587508 83.0256328,94.7073132 82.383977,93.8246653 L82.3850548,93.8300993 Z M65.0679355,104.388259 C65.1982983,104.341464 65.325405,104.285913 65.4484012,104.22198 C66.05523,104.550896 66.7512271,104.673262 67.4326432,104.570839 C67.4714443,105.823545 67.509886,107.076976 67.5479685,108.331131 C66.9063799,106.907367 66.0717229,105.58039 65.0679355,104.388259 L65.0679355,104.388259 Z M72.523124,108.59196 C71.7384808,109.849376 70.4375681,111.151349 69.5106544,110.113466 C69.0633647,109.611369 68.9243276,108.725635 68.9286388,107.913804 C68.9351057,106.474894 69.2897041,105.088151 69.5494555,103.703581 L69.5494555,103.694887 C70.6733336,104.644405 72.2946803,104.698228 73.4780607,103.825302 L73.5782967,103.747053 C74.092135,103.960699 74.6523248,104.035613 75.2036291,103.964411 C74.3500063,105.552573 73.4565046,107.095089 72.523124,108.59196 Z" id="Shape" fill="#0099CC"></path>
                <polygon id="Path" fill="#0099CC" points="23.8357236 66.6603394 19.6204135 66 0 69.7825712 19.9601416 70 24 68.5953408"></polygon>
                <polygon id="Path" fill="#0099CC" points="27 63.9293812 28.493276 59.9986175 41 45 31.5691232 62.2128518 28.4868209 65"></polygon>
                <polygon id="Path" fill="#0099CC" points="29.070678 69 33.0016591 70.4931612 48 83 30.7873023 73.5687721 28 70.4867066"></polygon>
                <polygon id="Path" fill="#0099CC" points="25.6464968 70 26.5 70 27.3524416 70 29 126 26.5 126 24 126"></polygon>
                <circle id="Oval" fill="#0099CC" cx="26.5" cy="67.5" r="1.5"></circle>
                <circle id="Oval" fill="#FFFFFF" cx="27" cy="67" r="1"></circle>
                <polygon id="Path" fill="#0099CC" points="515.893364 84 518.709568 85.4045912 529 96 516.861265 87.6247165 515 85.0735868"></polygon>
                <polygon id="Path" fill="#0099CC" points="516.168869 82 517.727361 79.3635898 521 65 515.310345 78.3726219 515 81.5208507"></polygon>
                <polygon id="Path" fill="#0099CC" points="512 82.7745209 508.893217 82 494 83.4994363 508.893217 85 512 84.2254791"></polygon>
                <polygon id="Path" fill="#0099CC" points="514.682261 86 513.999443 86 513.317739 86 512 128 513.999443 128 516 128"></polygon>
                <circle id="Oval" fill="#0099CC" cx="514" cy="84" r="1"></circle>
                <circle id="Oval" fill="#FFFFFF" cx="514" cy="84" r="1"></circle>
                <polygon id="Path" fill="#0099CC" points="471.192342 56.6605593 476.10909 56 499 59.7820636 475.712384 60 471 58.5949855"></polygon>
                <polygon id="Path" fill="#0099CC" points="467 53.7150605 465.186667 48.9980531 450 31 461.451594 51.6558198 465.194332 55"></polygon>
                <polygon id="Path" fill="#0099CC" points="465.715001 59 460.998887 60.8132165 443 76 463.655665 64.5480484 467 60.8066469"></polygon>
                <polygon id="Path" fill="#0099CC" points="469.023843 60 468 60 466.976157 60 465 127 468 127 471 127"></polygon>
                <circle id="Oval" fill="#0099CC" cx="468" cy="57" r="2"></circle>
                <circle id="Oval" fill="#FFFFFF" cx="468" cy="57" r="1"></circle>
                <path d="M399.650674,122.992839 C399.650674,122.992839 398.952392,122.023774 399.002581,121.05365 C399.05277,120.083526 399.700863,118.969208 400.748286,118.387133 C401.79571,117.805058 406.684775,116.835994 407.134294,116.787223 C407.583813,116.738452 412.097551,113.830199 413.51921,113.479258 C414.788119,113.161184 416.08867,112.593953 423.557014,113.455932 C424.270873,113.538237 424.96747,113.726688 425.622401,114.014681 C427.012419,114.628563 429.441131,115.730158 429.877557,116.108666 C431.225024,117.274936 431.274121,121.102421 430.476552,122.120257 C429.678983,123.138092 426.933862,122.992839 426.933862,122.992839 L399.650674,122.992839 Z" id="Path" fill="#0099CC"></path>
                <path d="M430.688835,119 C430.792348,118.998466 430.888446,118.954078 430.946183,118.881122 C431.00392,118.808165 431.016003,118.715854 430.978541,118.633916 C430.787649,118.221128 430.737119,117.730168 429.947728,117.542364 C429.382514,117.390631 428.82672,117.214677 428.282484,117.015179 C428.202755,116.984456 428.108755,117.001366 428.050553,117.0569 C427.992352,117.112434 427.983499,117.193664 428.028711,117.257322 C428.447549,117.85982 429.232448,118.854132 429.897198,118.943744 C430.158698,118.981673 430.423547,119.00049 430.688835,119 L430.688835,119 Z" id="Path" fill="#FFFFFF"></path>
                <path d="M401.518857,119.054983 C401.518857,119.054983 400.171523,119.540732 400.036574,120.186778 C399.979337,120.395478 399.989449,120.614541 400.065723,120.818251 C400.126502,120.952812 400.28811,121.026561 400.444661,120.991178 C400.606486,120.958694 400.746064,120.867218 400.830076,120.738589 C401.045995,120.406336 401.545847,119.619423 401.93774,119.281342 C402.111555,119.135617 401.905352,118.889828 401.518857,119.054983 Z" id="Path" fill="#FFFFFF"></path>
                <circle id="Oval" fill="#0099CC" cx="404.5" cy="122.5" r="2.5"></circle>
                <circle id="Oval" fill="#FFFFFF" cx="405" cy="123" r="2"></circle>
                <circle id="Oval" fill="#0099CC" cx="405" cy="123" r="1"></circle>
                <circle id="Oval" fill="#0099CC" cx="425.5" cy="122.5" r="2.5"></circle>
                <circle id="Oval" fill="#FFFFFF" cx="426" cy="123" r="2"></circle>
                <circle id="Oval" fill="#0099CC" cx="426" cy="123" r="1"></circle>
                <path d="M410.084516,116.42806 C410.084516,116.42806 411.138243,115.036149 413.192855,114.270859 C414.073551,113.94243 415.104483,113.988306 415.718898,114.026883 C415.887785,114.038352 416.023516,114.14053 415.996577,114.287541 C415.871207,114.988188 415.524109,116.722081 415.128314,116.900371 C414.63098,117.124536 410.80047,116.900371 410.80047,116.900371 C410.80047,116.900371 409.690794,116.898286 410.084516,116.42806 Z" id="Path" fill="#FFFFFF"></path>
                <path d="M418.101318,114.004507 C417.337669,114.061844 417.284368,114.462164 417.244635,114.520544 C417.241102,114.525532 417.238472,114.53119 417.236882,114.537224 C417.087641,115.150213 416.986855,116.042592 417.001391,116.385574 C417.009144,116.562798 417.001391,116.753576 417.063414,116.846358 C417.125436,116.93914 417.380309,116.988138 417.459775,116.990223 C417.997624,117.003775 420.068587,117.002733 420.599653,116.990223 C421.073031,116.968377 421.542691,116.890057 422,116.756703 L419.761383,114.067057 C418.973506,114.014932 418.309674,113.988869 418.101318,114.004507 Z" id="Path" fill="#FFFFFF"></path>
                <path d="M423.535959,114.486056 C423.190722,114.305445 421.549329,114.122178 420,114 L422.938759,117 C423.342142,116.806109 423.665575,116.583001 423.800036,116.34927 C424.039885,115.948207 424.176769,114.819389 423.535959,114.486056 Z" id="Path" fill="#FFFFFF"></path>
                <path d="M444,117.500497 C444,118.881473 445.435061,119.999988 447.206756,119.999988 C447.47366,120.000366 447.73976,119.974629 448,119.923263 L448,115.077731 C447.739805,115.026025 447.473704,114.999949 447.206756,115 C445.435061,115 444,116.11952 444,117.500497 Z M445.353524,117.500497 C445.353524,117.054304 445.819453,116.692908 446.389051,116.692908 C446.475292,116.692981 446.561251,116.701446 446.645312,116.718145 L446.645312,118.282848 C446.561206,118.299207 446.475248,118.307334 446.389051,118.307082 C445.817123,118.307082 445.353524,117.94568 445.353524,117.500497 Z" id="Shape" fill="#0099CC"></path>
                <path d="M447.197678,118 L451,118 L451,119 L447.197678,119 C447.088503,119 447,118.865361 447,118.699275 L447,118.300725 C447,118.134639 447.088503,118 447.197678,118 L447.197678,118 Z" id="Path" fill="#0099CC" transform="translate(449.000000, 118.500000) rotate(180.000000) translate(-449.000000, -118.500000) "></path>
                <path d="M447.197678,116 L451,116 L451,117 L447.197678,117 C447.088503,117 447,116.865361 447,116.699275 L447,116.300725 C447,116.134639 447.088503,116 447.197678,116 Z" id="Path" fill="#0099CC" transform="translate(449.000000, 116.500000) rotate(180.000000) translate(-449.000000, -116.500000) "></path>
                <circle id="Oval" fill="#0099CC" cx="449.5" cy="118.5" r="1"></circle>
                <circle id="Oval" fill="#0099CC" cx="449.5" cy="116.5" r="1"></circle>
                <circle id="Oval" fill="#0099CC" transform="translate(444.828785, 117.655286) rotate(-45.000000) translate(-444.828785, -117.655286) " cx="444.828785" cy="117.655286" r="1.0720954"></circle>
                <path d="M447,117 L447,119 C445.883271,118.964091 445,118.531012 445,118 C445,117.468988 445.883271,117.035909 447,117 Z" id="Path" fill="#FFFFFF"></path>
                <path d="M443.246284,118.287009 C443.246284,118.287009 438.813665,119.496416 436.434015,120.227074 C436.434015,120.227074 432.100682,121.713462 431,120.56375 L431,119.551335 C431,119.551335 432.239468,120.787007 435.993102,119.551335 L444,117 L444,118.154488 L443.246284,118.287009 Z" id="Path" fill="#0099CC"></path>
                <polygon id="Path" fill="#0099CC" points="460.021419 121.136364 460.021419 112.932955 458.59071 112.932955 458.59071 112.268182 459.301935 112.268182 459.301935 111 454.697032 111 454.697032 112.268182 455.40929 112.268182 455.40929 112.932955 453.977548 112.932955 453.977548 121.136364 453 123.001136 453.977548 123.001136 453.977548 127 460.021419 127 460.021419 123.001136 461 123.001136"></polygon>
                <rect id="Rectangle" fill="#FFFFFF" x="455" y="122" width="5" height="2"></rect>
                <polygon id="Path" fill="#FFFFFF" points="460 116.752459 458.247541 116.752459 458.247541 115 456.752459 115 456.752459 116.752459 455 116.752459 455 118.247541 456.752459 118.247541 456.752459 120 458.247541 120 458.247541 118.247541 460 118.247541"></polygon>
                <path d="M54.4671016,103 L37.5340168,103 C35.582479,103 34,104.483907 34,106.313873 L34,114.793982 C34,116.623947 35.582479,118.108974 37.5340168,118.108974 L44.3560112,118.108974 L44.3560112,126 L47.6439888,126 L47.6439888,118.108974 L54.4659832,118.108974 C56.417521,118.108974 58,116.623947 58,114.793982 L58,106.313873 C58,104.478307 56.4186393,103 54.4671016,103 Z" id="Path" fill="#0099CC"></path>
                <rect id="Rectangle" fill="#FFFFFF" x="35" y="107" width="4" height="2"></rect>
                <rect id="Rectangle" fill="#FFFFFF" x="40" y="107" width="4" height="2"></rect>
                <rect id="Rectangle" fill="#FFFFFF" x="47" y="107" width="4" height="2"></rect>
                <rect id="Rectangle" fill="#FFFFFF" x="53" y="107" width="4" height="2"></rect>
                <rect id="Rectangle" fill="#FFFFFF" x="35" y="111" width="4" height="2"></rect>
                <rect id="Rectangle" fill="#FFFFFF" x="40" y="111" width="4" height="2"></rect>
                <rect id="Rectangle" fill="#FFFFFF" x="47" y="111" width="4" height="2"></rect>
                <rect id="Rectangle" fill="#FFFFFF" x="53" y="111" width="4" height="2"></rect>
                <rect id="Rectangle" fill="#FFFFFF" x="35" y="114" width="4" height="2"></rect>
                <rect id="Rectangle" fill="#FFFFFF" x="40" y="114" width="4" height="2"></rect>
                <rect id="Rectangle" fill="#FFFFFF" x="47" y="114" width="4" height="2"></rect>
                <rect id="Rectangle" fill="#FFFFFF" x="53" y="114" width="4" height="2"></rect>
                <path d="M507.232524,115 L498.767466,115 C497.791484,115 497,115.710386 497,116.586076 L497,120.643333 C497,121.519022 497.791484,122.228362 498.767466,122.228362 L502.177943,122.228362 L502.177943,126 L503.822047,126 L503.822047,122.233593 L507.232524,122.233593 C508.208506,122.233593 509,121.524253 509,120.648564 L509,116.583983 C509.003265,115.710386 508.215056,115 507.232524,115 Z" id="Path" fill="#0099CC"></path>
                <rect id="Rectangle" fill="#FFFFFF" x="498" y="117" width="2" height="1"></rect>
                <rect id="Rectangle" fill="#FFFFFF" x="500" y="117" width="2" height="1"></rect>
                <rect id="Rectangle" fill="#FFFFFF" x="503" y="117" width="2" height="1"></rect>
                <rect id="Rectangle" fill="#FFFFFF" x="506" y="117" width="2" height="1"></rect>
                <rect id="Rectangle" fill="#FFFFFF" x="498" y="118" width="2" height="1"></rect>
                <rect id="Rectangle" fill="#FFFFFF" x="500" y="118" width="2" height="1"></rect>
                <rect id="Rectangle" fill="#FFFFFF" x="503" y="118" width="2" height="1"></rect>
                <rect id="Rectangle" fill="#FFFFFF" x="506" y="118" width="2" height="1"></rect>
                <rect id="Rectangle" fill="#FFFFFF" x="498" y="120" width="2" height="1"></rect>
                <rect id="Rectangle" fill="#FFFFFF" x="500" y="120" width="2" height="1"></rect>
                <rect id="Rectangle" fill="#FFFFFF" x="503" y="120" width="2" height="1"></rect>
                <rect id="Rectangle" fill="#FFFFFF" x="506" y="120" width="2" height="1"></rect>
                <path d="M490.339531,110 L477.649239,110 C476.189294,110 475,111.096667 475,112.449481 L475,118.716783 C475,120.070706 476.185925,121.167373 477.649239,121.167373 L482.764662,121.167373 L482.764662,127 L485.235338,127 L485.235338,121.167373 L490.349638,121.167373 C491.809583,121.167373 493,120.070706 493,118.716783 L493,112.449481 C492.989893,111.096667 491.803968,110 490.339531,110 Z" id="Path" fill="#0099CC"></path>
                <rect id="Rectangle" fill="#FFFFFF" x="475" y="112" width="3" height="2"></rect>
                <rect id="Rectangle" fill="#FFFFFF" x="479" y="112" width="3" height="2"></rect>
                <rect id="Rectangle" fill="#FFFFFF" x="485" y="112" width="3" height="2"></rect>
                <rect id="Rectangle" fill="#FFFFFF" x="489" y="112" width="3" height="2"></rect>
                <rect id="Rectangle" fill="#FFFFFF" x="475" y="115" width="3" height="2"></rect>
                <rect id="Rectangle" fill="#FFFFFF" x="479" y="115" width="3" height="2"></rect>
                <rect id="Rectangle" fill="#FFFFFF" x="485" y="115" width="3" height="2"></rect>
                <rect id="Rectangle" fill="#FFFFFF" x="489" y="115" width="3" height="2"></rect>
                <rect id="Rectangle" fill="#FFFFFF" x="475" y="118" width="3" height="2"></rect>
                <rect id="Rectangle" fill="#FFFFFF" x="479" y="118" width="3" height="2"></rect>
                <rect id="Rectangle" fill="#FFFFFF" x="485" y="118" width="3" height="2"></rect>
                <rect id="Rectangle" fill="#FFFFFF" x="489" y="118" width="3" height="2"></rect>
                <polygon id="Path" fill="#0099CC" points="121 108.276884 120.244018 108.276884 120.244018 97.8443886 120.244018 97.5929648 120.244018 96.2127862 113.392592 96.2127862 111.138705 94.8835288 111.138705 91.9788945 111.493443 91.9788945 111.493443 89 108.456536 89 108.456536 91.9788945 108.811275 91.9788945 108.811275 93.5107761 105.076788 91.3073702 96.7620657 96.2127862 89.7559822 96.2127862 89.7559822 97.5929648 89.7559822 97.8443886 89.7559822 108.276884 89 108.276884 89 110.030486 89.7559822 110.030486 89.7559822 127 120.244018 127 120.244018 110.030486 121 110.030486"></polygon>
                <rect id="Rectangle" fill="#FFFFFF" x="93" y="105" width="2" height="5"></rect>
                <polygon id="Path" fill="#FFFFFF" points="96.9976471 105 95 105 95 110 96.9976471 110 97.0141176 110 99 110 99 105 97.0141176 105"></polygon>
                <rect id="Rectangle" fill="#FFFFFF" x="100" y="105" width="2" height="5"></rect>
                <polygon id="Path" fill="#FFFFFF" points="97.0215909 104 97.0034091 104 92 104 92 105 97.0034091 105 97.0215909 105 102 105 102 104"></polygon>
                <rect id="Rectangle" fill="#FFFFFF" x="109" y="105" width="2" height="5"></rect>
                <polygon id="Path" fill="#FFFFFF" points="113.017647 105 111 105 111 110 113.017647 110 113.034118 110 115 110 115 105 113.034118 105"></polygon>
                <rect id="Rectangle" fill="#FFFFFF" x="115" y="105" width="2" height="5"></rect>
                <polygon id="Path" fill="#FFFFFF" points="113.042045 104 113.022727 104 108 104 108 105 113.022727 105 113.042045 105 118 105 118 104"></polygon>
                <path d="M103,116.416539 L103,121 L105,121 L105,114 C103.900047,114 103,115.091716 103,116.416539 Z" id="Path" fill="#FFFFFF"></path>
                <path d="M108,116.416539 C108,115.087831 107.100047,114 106,114 L106,114 L106,121 L108,121 L108,116.416539 Z" id="Path" fill="#FFFFFF"></path>
            </g>
        </g>
    </g>
</svg>